<svg width="714" height="323" viewBox="0 0 714 323" fill="none" xmlns="http://www.w3.org/2000/svg">
<path d="M583.476 198.465H54.2348C36.1602 198.465 21.5078 213.117 21.5078 231.192V289.633C21.5078 307.707 36.1602 322.36 54.2348 322.36H583.476C601.551 322.36 616.203 307.707 616.203 289.633V231.192C616.203 213.117 601.551 198.465 583.476 198.465Z" fill="#6ACCCD"/>
<path fill-rule="evenodd" clip-rule="evenodd" d="M79.0117 177.895H559.163V236.336C559.163 241.5 554.977 245.686 549.812 245.686H88.3623C83.1981 245.686 79.0117 241.5 79.0117 236.336V177.895Z" fill="white"/>
<path d="M548.412 22.6758H90.2348C72.1602 22.6758 57.5078 37.3281 57.5078 55.4027V186.778C57.5078 204.853 72.1602 219.505 90.2348 219.505H548.412C566.487 219.505 581.139 204.853 581.139 186.778V55.4027C581.139 37.3281 566.487 22.6758 548.412 22.6758Z" fill="#7AD8D6"/>
<rect x="72" y="170" width="523" height="76" fill="white"/>
<path d="M578 180V152.5H534.5V180H578Z" fill="white"/>
<path d="M63.5 176L109 182L116.5 166L67.5 137L63.5 176Z" fill="white"/>
<path d="M549.347 170.414H88.3642C85.2657 170.414 82.7539 172.926 82.7539 176.024V236.336C82.7539 239.434 85.2657 241.946 88.3642 241.946H549.347C552.445 241.946 554.957 239.434 554.957 236.336V176.024C554.957 172.926 552.445 170.414 549.347 170.414Z" fill="#6ACCCD"/>
<path d="M59.8436 125.531H18.7011C8.37278 125.531 0 133.904 0 144.232V303.659C0 313.988 8.37278 322.361 18.7011 322.361H59.8436C70.1719 322.361 78.5447 313.988 78.5447 303.659V144.232C78.5447 133.904 70.1719 125.531 59.8436 125.531Z" fill="#6ACCCD"/>
<path d="M619.008 125.531H577.865C567.537 125.531 559.164 133.904 559.164 144.232V303.659C559.164 313.988 567.537 322.361 577.865 322.361H619.008C629.336 322.361 637.709 313.988 637.709 303.659V144.232C637.709 133.904 629.336 125.531 619.008 125.531Z" fill="#6ACCCD"/>
<path fill-rule="evenodd" clip-rule="evenodd" d="M339.401 261.607C339.401 261.607 312.063 271.005 312.063 271.006C310.592 271.51 309.074 270.804 308.637 269.382C299.138 239.909 286.278 210.459 266.32 187.694C263.295 183.201 256.564 180.711 256.26 175.07C255.379 170.297 266.657 156.152 268.45 152.142C275.904 142.148 285.141 156.413 290.819 161.727C314.605 188.649 329.959 222.742 341.142 257.626C341.659 259.304 340.873 261.104 339.401 261.607Z" fill="#D29863"/>
<path fill-rule="evenodd" clip-rule="evenodd" d="M148.548 124.456L134.321 148.421C133.675 149.531 134.858 151.299 135.834 152.201C149.863 162.016 166.561 163.69 182.066 164.857C244.79 163.2 274.712 191.198 297.202 253.173L339.818 233.869C303.825 137.962 263.885 127.653 172.855 124.242C170.535 124.066 162.433 124.138 148.548 124.456Z" fill="#6249D0"/>
<path fill-rule="evenodd" clip-rule="evenodd" d="M337.429 246.391C335.209 247.301 327.205 250.581 319.742 253.64C322.632 260.191 308.67 265.611 306.842 258.928C305.865 259.329 305.301 259.56 305.301 259.56C306.92 264.172 308.448 268.811 309.784 273.507L357.664 258.417C357.43 257.588 356.96 255.922 356.714 255.106C356.369 245.91 341.362 252.035 337.429 246.391Z" fill="#8773E0"/>
<path fill-rule="evenodd" clip-rule="evenodd" d="M339.898 233.706L297.145 252.937C295.44 248.529 293.641 244.166 291.742 239.888L333.534 218.34C335.785 223.413 337.897 228.536 339.898 233.706Z" fill="white"/>
<path fill-rule="evenodd" clip-rule="evenodd" d="M241.582 319.765L213.057 319.791C211.522 319.791 210.278 318.478 210.271 316.844C209.843 280.207 209.4 243.257 204.42 207.11C203.021 200.601 201.848 194.709 209.284 192.616C213.561 191.894 229.001 183.106 233.023 187.127C241.584 189.802 248.768 318.386 241.582 319.765Z" fill="#EDB98A"/>
<path fill-rule="evenodd" clip-rule="evenodd" d="M124.069 124.367L92.5781 149.899C97.5924 162.8 106.996 170.682 123.133 170.682C181.474 170.682 199.916 197.069 202.294 239.411C203.352 258.248 203.756 277.273 204.34 295.95L250.603 294.935C246.158 170.327 253.44 152.201 133.37 124.582C133.37 124.439 130.27 124.367 124.069 124.367Z" fill="#694FD9"/>
<path fill-rule="evenodd" clip-rule="evenodd" d="M244.47 305.301C242.116 305.334 233.627 305.454 225.711 305.566C226.318 312.91 211.61 313.054 212.029 305.758C210.993 305.773 210.395 305.782 210.395 305.782C210.444 309.803 210.493 317.892 210.491 321.91L259.952 322.132L259.946 316.547C259.924 312.158 246.415 311.189 244.47 305.301Z" fill="#8773E0"/>
<path fill-rule="evenodd" clip-rule="evenodd" d="M250.6 294.923L204.22 295.947C204.123 290.714 204.001 285.484 203.848 280.266L250.214 278.648C250.373 284.077 250.5 289.501 250.6 294.923Z" fill="white"/>
<path fill-rule="evenodd" clip-rule="evenodd" d="M172.992 124.367C172.992 149.863 153.863 170.532 130.267 170.532L127.673 170.532L127.631 170.652H109.408C94.9484 170.652 83.2266 158.931 83.2266 144.471V124.488C83.2266 124.447 83.2266 124.407 83.2266 124.367H172.992Z" fill="#694FD9"/>
<path fill-rule="evenodd" clip-rule="evenodd" d="M181.983 124.765H81.707V74.7109C81.707 63.7389 90.6017 54.8438 101.574 54.8438H162.116C173.088 54.8438 181.983 63.7389 181.983 74.7109V124.765Z" fill="white"/>
<path fill-rule="evenodd" clip-rule="evenodd" d="M153.999 159.026C154.22 163.288 152.658 167.218 149.767 170.104C146.89 172.97 142.664 174.732 137.973 174.551C132.835 174.349 127.653 173.915 122.431 173.172C117.21 172.429 111.946 171.384 106.656 169.863C101.959 168.509 97.2403 166.841 92.5622 164.584C87.8921 162.33 83.2439 159.561 78.8796 155.94L78.0623 155.269L77.2605 154.55C76.7299 154.065 76.1932 153.598 75.6742 153.089L74.1323 151.537C73.6175 151.024 73.136 150.447 72.6413 149.9C70.6908 147.669 68.8633 145.238 67.3092 142.576C65.7537 139.926 64.3885 137.11 63.3796 134.165C62.367 131.227 61.6264 128.203 61.1963 125.181C60.7937 122.165 60.6399 119.16 60.7488 116.237C60.7666 115.502 60.8353 114.79 60.8821 114.065C60.9316 113.342 60.9901 112.622 61.0878 111.923L61.3618 109.809L61.7297 107.749L61.9209 106.72L62.15 105.719L62.6222 103.72L63.1688 101.778C63.3539 101.132 63.5353 100.481 63.7522 99.8628C64.1702 98.6107 64.583 97.3484 65.0637 96.1534L65.7696 94.3413L66.5289 92.5838C70.645 83.2501 76.0174 75.3138 81.7768 68.0765C83.0976 66.3859 84.7531 65.1465 86.5129 64.2554C88.3054 63.4134 90.2106 62.9337 92.1485 62.8944C96.028 62.8046 99.9024 64.3185 102.986 67.2733C106.053 70.214 107.799 73.9902 108.272 77.5949C108.503 79.3991 108.459 81.1888 108.042 82.8265C107.678 84.489 106.924 85.9968 105.889 87.3311C101.3 93.0654 97.3675 99.0745 94.7905 104.971C92.1751 110.858 91.1022 116.529 91.7497 120.864C91.9082 121.956 92.1737 122.978 92.5033 123.969C92.8297 124.962 93.3084 125.892 93.8437 126.826C94.3725 127.76 95.0617 128.66 95.8406 129.555C96.6045 130.455 97.5311 131.321 98.5494 132.166C99.5462 133.023 100.722 133.813 101.935 134.594C102.566 134.969 103.181 135.36 103.861 135.71C104.509 136.084 105.213 136.417 105.908 136.762C108.712 138.124 111.852 139.247 115.133 140.193C118.829 141.262 122.758 142.053 126.792 142.625C130.827 143.198 134.975 143.553 139.179 143.718C143.002 143.864 146.495 145.567 149.199 148.292C151.889 150.998 153.778 154.779 153.999 159.026Z" fill="#EDB98A"/>
<path fill-rule="evenodd" clip-rule="evenodd" d="M163.912 169.549C164.138 171.862 162.308 173.94 159.804 174.117C148.936 174.907 137.875 174.972 126.602 173.703C125.309 173.558 124.194 172.953 123.454 172.071C122.713 171.199 122.352 170.085 122.522 168.936C122.874 166.626 125.121 165.085 127.541 165.34C138.158 166.537 148.736 166.485 159.184 165.725C161.574 165.556 163.686 167.236 163.912 169.549Z" fill="#EDB98A"/>
<path fill-rule="evenodd" clip-rule="evenodd" d="M151.936 143.67C151.986 144.831 151.598 145.898 150.914 146.687C150.232 147.481 149.257 147.984 148.168 147.997C143.934 148.082 139.721 148.007 135.559 147.74C135.024 147.705 134.451 147.402 133.901 146.971C133.351 146.534 132.828 145.951 132.375 145.385C131.923 144.816 131.543 144.254 131.276 143.834C131.009 143.417 130.859 143.129 130.859 143.129C132.095 143.254 132.611 142.234 133.358 141.248C134.105 140.27 135.093 139.275 137.308 139.42C140.82 139.614 144.395 139.655 148 139.583C149.032 139.571 149.983 140.012 150.699 140.74C151.412 141.475 151.886 142.509 151.936 143.67Z" fill="#EDB98A"/>
<path fill-rule="evenodd" clip-rule="evenodd" d="M164.007 146.99C164.259 149.306 162.642 151.35 160.396 151.561C152.895 152.183 145.383 152.432 137.956 152.084C137.403 152.059 136.881 151.921 136.414 151.684C135.949 151.439 135.54 151.103 135.206 150.699C134.539 149.891 134.18 148.813 134.267 147.654C134.353 146.495 134.86 145.475 135.595 144.76C135.962 144.404 136.387 144.124 136.848 143.942C137.312 143.751 137.816 143.654 138.337 143.678C145.332 144.006 152.493 143.772 159.68 143.176C161.818 142.974 163.756 144.685 164.007 146.99Z" fill="#EDB98A"/>
<path fill-rule="evenodd" clip-rule="evenodd" d="M163.7 158.986C163.621 161.115 163.981 163.157 164.748 165.027C165.132 165.959 165.613 166.859 166.194 167.687C166.776 168.511 167.454 169.28 168.217 169.981C171.262 172.768 175.802 174.405 180.97 173.78C182.368 173.634 183.825 173.377 185.256 173.156C186.722 172.868 188.17 172.606 189.675 172.218L190.793 171.943C191.166 171.85 191.552 171.729 191.931 171.622L193.07 171.288L193.639 171.117C193.832 171.059 194.075 170.972 194.29 170.899C195.178 170.59 196.057 170.283 196.94 169.941C197.836 169.573 198.728 169.191 199.612 168.797C203.12 167.164 206.415 165.095 209.304 162.571C212.19 160.046 214.652 157.055 216.54 153.73C217.918 151.291 219 148.682 219.741 145.972C220.475 143.26 220.889 140.462 221.023 137.639C221.158 134.814 220.957 131.971 220.571 129.156C220.462 128.454 220.345 127.751 220.221 127.051L220.126 126.526L220.032 126.094L219.843 125.233C219.599 124.069 219.296 122.981 218.996 121.88C217.762 117.526 216.162 113.614 214.422 109.909C212.674 106.213 210.758 102.754 208.743 99.4435C204.705 92.8327 200.281 86.7917 195.661 81.0402C191.03 75.305 186.192 69.8714 181.211 64.6463C178.905 62.2386 175.56 61.2993 172.07 61.7766C168.581 62.24 164.957 64.104 161.985 67.157C159.014 70.209 157.236 73.8534 156.682 77.2462C156.143 80.6367 156.813 83.7827 158.884 85.945C163.365 90.6446 167.649 95.4662 171.634 100.401C175.602 105.336 179.279 110.396 182.389 115.493C183.94 118.038 185.341 120.59 186.524 123.093C187.699 125.589 188.683 128.056 189.312 130.303C189.457 130.858 189.624 131.419 189.723 131.936L189.813 132.33L189.858 132.524L189.87 132.633C189.888 132.778 189.913 132.921 189.947 133.064C190.039 133.639 190.09 134.222 190.08 134.805C190.06 135.967 189.819 137.15 189.221 138.157C188.456 139.568 187.105 140.564 185.658 141.2L185.107 141.427C184.897 141.494 184.668 141.563 184.456 141.649C184.395 141.67 184.366 141.69 184.278 141.715L184.006 141.792L183.463 141.95C183.28 142.001 183.11 142.063 182.915 142.109L182.329 142.248C181.572 142.454 180.715 142.595 179.89 142.769C179.01 142.893 178.165 143.061 177.236 143.15C173.942 143.552 170.754 145.369 168.219 148.162C167.587 148.856 167.002 149.618 166.475 150.437C165.947 151.251 165.474 152.107 165.077 153.02C164.282 154.843 163.779 156.858 163.7 158.986Z" fill="#EDB98A"/>
<path d="M195.746 75.7969L174.746 59.2969L144.246 75.7969L167.746 100.297L195.746 75.7969Z" fill="white"/>
<path fill-rule="evenodd" clip-rule="evenodd" d="M153.784 169.563C153.674 170.719 154.075 171.815 154.827 172.653C155.584 173.479 156.698 174.035 157.967 174.131C163.512 174.525 169.208 174.642 175.132 174.306C178.104 174.118 181.117 173.845 184.25 173.317C187.385 172.798 190.556 172.109 193.935 171.022C194.818 170.722 195.617 170.312 196.289 169.837C196.963 169.362 197.532 168.769 197.93 168.19C198.74 167.024 198.883 165.77 198.333 164.742C197.785 163.721 196.689 163.095 195.419 162.794C194.785 162.643 194.106 162.613 193.418 162.635C192.73 162.657 192.026 162.78 191.326 163.022C188.475 163.938 185.682 164.551 182.894 165.012C180.108 165.483 177.361 165.732 174.632 165.905C169.181 166.214 163.823 166.112 158.548 165.736C157.34 165.643 156.21 166.031 155.346 166.725C154.488 167.407 153.893 168.406 153.784 169.563Z" fill="#EDB98A"/>
<path fill-rule="evenodd" clip-rule="evenodd" d="M149.273 161.55C148.988 163.844 150.693 165.981 153.12 166.209C157.812 166.677 162.559 166.982 167.384 167.016C168.005 167.019 168.597 166.904 169.133 166.693C169.669 166.476 170.151 166.152 170.549 165.764C171.345 164.985 171.803 163.922 171.766 162.761C171.727 161.599 171.21 160.559 170.429 159.814C170.038 159.441 169.58 159.148 169.075 158.94C168.571 158.724 168.021 158.603 167.441 158.6C162.94 158.569 158.439 158.283 153.954 157.835C152.8 157.731 151.709 158.075 150.862 158.74C150.016 159.408 149.415 160.397 149.273 161.55Z" fill="#EDB98A"/>
<path fill-rule="evenodd" clip-rule="evenodd" d="M149.266 154.018C148.966 156.319 150.604 158.419 152.928 158.674C157.433 159.15 161.96 159.465 166.496 159.531C167.664 159.533 168.724 159.078 169.47 158.306C170.218 157.527 170.653 156.465 170.625 155.304C170.597 154.142 170.123 153.1 169.404 152.355C168.682 151.605 167.702 151.117 166.622 151.116C162.399 151.056 158.11 150.759 153.806 150.305C151.6 150.063 149.566 151.71 149.266 154.018Z" fill="#EDB98A"/>
<path fill-rule="evenodd" clip-rule="evenodd" d="M165.502 143.606C165.47 144.765 165.864 145.836 166.536 146.61C167.203 147.373 168.155 147.852 169.203 147.853C173.248 147.805 177.195 147.516 180.804 146.875C181.26 146.783 181.715 146.425 182.122 145.946C182.523 145.458 182.848 144.823 183.116 144.222C183.391 143.625 183.556 143.019 183.665 142.575C183.774 142.132 183.824 141.844 183.824 141.844C182.967 142.109 182.363 141.157 181.644 140.248C181.279 139.792 180.908 139.361 180.375 139.052C179.845 138.745 179.259 138.625 178.362 138.746C175.6 139.181 172.443 139.408 169.124 139.438C168.163 139.436 167.286 139.899 166.634 140.66C165.975 141.41 165.531 142.442 165.502 143.606Z" fill="#EDB98A"/>
<path fill-rule="evenodd" clip-rule="evenodd" d="M153.711 147.006C153.452 149.312 155.055 151.375 157.285 151.571C161.007 151.894 164.71 152.058 168.365 152.059C172.017 152.054 175.624 151.864 179.092 151.405C180.114 151.243 180.98 150.652 181.477 149.774C181.977 148.898 182.142 147.795 181.904 146.657C181.667 145.52 181.092 144.559 180.4 143.922C179.706 143.287 178.831 142.925 177.965 143.065C174.971 143.461 171.716 143.64 168.354 143.644C164.987 143.642 161.517 143.492 157.987 143.184C155.89 143.001 153.968 144.693 153.711 147.006Z" fill="#EDB98A"/>
<path d="M72.2461 75.7969L101.746 98.7969L115.246 76.2969L91.7461 58.7969L72.2461 75.7969Z" fill="white"/>
<path fill-rule="evenodd" clip-rule="evenodd" d="M114.902 56.104H103.324V49.3697C103.324 45.3424 106.588 42.0781 110.616 42.0781H118.744C119.782 42.0781 120.623 42.9192 120.623 43.9567V50.3833C120.623 53.5424 118.061 56.104 114.902 56.104Z" fill="black"/>
<path fill-rule="evenodd" clip-rule="evenodd" d="M105.624 68.2573C110.035 68.2573 113.611 64.6816 113.611 60.2705V56.1016H99.9024C98.6943 56.1016 97.7148 57.081 97.7148 58.2896V60.3481C97.7148 64.7162 101.255 68.2573 105.624 68.2573Z" fill="black"/>
<path fill-rule="evenodd" clip-rule="evenodd" d="M118.755 46.7529C111.525 46.7529 105.664 40.8919 105.664 33.6621V22.4414H118.755V46.7529Z" fill="black"/>
<path fill-rule="evenodd" clip-rule="evenodd" d="M129.415 49.0904H136.053V0H129.415C116.298 0 105.664 10.6335 105.664 23.7509V25.3395C105.664 38.457 116.298 49.0904 129.415 49.0904Z" fill="black"/>
<path fill-rule="evenodd" clip-rule="evenodd" d="M136.613 43.4801H132.312V0H136.613C149.73 0 160.364 7.38834 160.364 23.6536V31.4212C160.364 43.4801 149.73 43.4801 136.613 43.4801Z" fill="black"/>
<path fill-rule="evenodd" clip-rule="evenodd" d="M120.625 34.1289H141.664V58.2688C141.664 64.7698 136.954 70.0397 131.144 70.0397C125.334 70.0397 120.625 64.7698 120.625 58.2688V34.1289Z" fill="#EDB98A"/>
<path fill-rule="evenodd" clip-rule="evenodd" d="M142.623 49.0883H140.292C129.43 49.0883 120.625 40.2833 120.625 29.4217V20.1964C120.625 11.8814 127.365 5.14062 135.681 5.14062H138.296C146.611 5.14062 153.352 11.8814 153.352 20.1964V38.3594C153.352 44.2849 148.549 49.0883 142.623 49.0883Z" fill="#EDB98A"/>
<path opacity="0.12" fill-rule="evenodd" clip-rule="evenodd" d="M130.79 50.1817C126.445 48.6444 124.277 44.7616 123.418 39.5391C126.817 45.1971 132.983 49.0042 140.044 49.09L140.288 49.0915H141.66C137.949 51.0691 134.326 51.4325 130.79 50.1817Z" fill="black"/>
<path fill-rule="evenodd" clip-rule="evenodd" d="M126.235 32.4925C126.235 35.7199 123.619 38.3366 120.391 38.3366C117.163 38.3366 114.547 35.7199 114.547 32.4925C114.547 29.2652 117.163 26.6484 120.391 26.6484C123.619 26.6484 126.235 29.2652 126.235 32.4925Z" fill="#EDB98A"/>
<path d="M119.254 30C119.677 30 120.262 30.0976 120.863 30.3979C121.867 30.8997 122.501 31.8172 122.544 33.1481L122.546 33.2923H121.144C121.144 32.4342 120.816 31.9424 120.236 31.6524C120.02 31.5447 119.783 31.4734 119.543 31.4335C119.426 31.4139 119.334 31.4055 119.281 31.4032L119.254 31.4026V30Z" fill="black"/>
<path fill-rule="evenodd" clip-rule="evenodd" d="M120.155 26.6491H119.437C116.7 23.9879 115.648 18.5646 115.331 13.3007C114.897 6.08721 127.421 0 134.648 0C140.207 0 145.413 2.72616 148.579 7.29577L151.947 12.1557H132.636C132.636 20.1037 125.765 26.6491 120.155 26.6491Z" fill="black"/>
<path d="M141.76 24.9625L143.139 24.707L145.144 35.5299H140.527V34.1273L143.457 34.127L141.76 24.9625Z" fill="black"/>
<path d="M136.852 35.332C136.852 37.0499 138.601 38.6385 140.48 38.7001L140.592 38.702V40.1046C137.975 40.1046 135.531 37.9698 135.451 35.4579L135.449 35.332H136.852Z" fill="black"/>
<path d="M141.655 24.9546L143.034 24.6992L145.038 35.5221H140.422V34.1195L143.352 34.1194L141.655 24.9546Z" fill="black"/>
<path d="M141.655 24.9546L143.034 24.6992L145.038 35.5221H140.422V34.1195L143.352 34.1194L141.655 24.9546Z" fill="black"/>
<path d="M141.655 24.9546L143.034 24.6992L145.038 35.5221H140.422V34.1195L143.352 34.1194L141.655 24.9546Z" fill="black"/>
<path d="M137.617 18.9336V20.3362C135.759 20.3362 134.065 20.8343 132.568 21.666C132.044 21.957 131.583 22.2684 131.191 22.5782L131.049 22.6925C130.918 22.7997 130.823 22.8847 130.764 22.9411L130.738 22.9668L129.746 21.975C130.144 21.5774 130.868 21.0061 131.887 20.4398C133.513 19.5366 135.35 18.9794 137.364 18.9363L137.617 18.9336Z" fill="black"/>
<path d="M143.254 19.0938C145.121 19.0938 146.818 19.593 148.314 20.4237C149.161 20.8945 149.778 21.3697 150.142 21.7187L150.208 21.7827L149.216 22.7744C149.157 22.7155 149.026 22.5979 148.827 22.4409C148.487 22.1724 148.087 21.9024 147.633 21.6498C146.396 20.9627 145.004 20.5381 143.483 20.4993L143.254 20.4963V19.0938Z" fill="black"/>
<path d="M133.126 25.0938C133.806 26.7928 136.963 26.8226 137.378 25.2997L137.398 25.2167L138.773 25.4917C138.167 28.5231 133.128 28.5601 131.869 25.7211L131.824 25.6147L133.126 25.0938Z" fill="black"/>
<path d="M144.814 25.0938C145.494 26.7928 148.651 26.8226 149.066 25.2997L149.086 25.2167L150.461 25.4917C149.855 28.5231 144.815 28.5601 143.557 25.7211L143.512 25.6147L144.814 25.0938Z" fill="black"/>
<path fill-rule="evenodd" clip-rule="evenodd" d="M481.998 290.321C481.998 290.321 503.835 269.615 503.836 269.615C505.019 268.496 506.004 267.617 504.94 266.385C492.315 251.773 479.988 236.917 468.35 221.576C459.361 209.635 450.565 197.446 443.304 184.444C438.757 176.774 441.093 174.26 448.496 171.343C458.852 167.131 470.123 163.943 481.179 161.272L473.313 125.293C451.034 131.367 396.317 143.221 402.564 176.055C407.89 202.166 425.975 223.78 440.762 244.53C452.981 260.631 465.784 276.065 478.815 291.145C479.889 292.388 480.815 291.442 481.998 290.321Z" fill="#964C1C"/>
<path fill-rule="evenodd" clip-rule="evenodd" d="M489.556 124.511L503.791 161.955C504.097 163.486 504.036 164.779 503.686 164.839C487.741 167.976 470.435 172.327 455.564 178.125L448.23 156.685C449.465 154.41 450.77 152.139 452.133 149.883C449.802 149.009 447.445 148.177 445.05 147.391L437.599 125.608C445.369 124.486 462.688 124.12 489.556 124.511Z" fill="#C53B26"/>
<path fill-rule="evenodd" clip-rule="evenodd" d="M470.262 286.11C458.596 272.475 447.055 258.363 436.198 243.968L468.584 217.398C481.802 234.968 496.142 251.977 510.535 268.545C510.207 268.848 500.714 277.616 500.106 278.177C499.169 277.397 498.333 276.754 497.474 276.079L493.902 283.907C487.403 289.909 474.16 302.142 467.708 308.099L464.467 304.349C461.993 301.491 469.796 292.331 470.262 286.11Z" fill="#383535"/>
<path fill-rule="evenodd" clip-rule="evenodd" d="M389.941 318.837C391.537 318.874 392.824 318.957 392.867 317.46C393.791 292.46 397.374 266.912 405.213 243.339C422.176 188.999 461.355 173.029 504.926 168.246L492.386 133.711C461.048 144.854 426.636 153.216 402.098 178.476C375.33 206.524 365.274 246.761 360.148 284.83C358.849 295.268 357.993 305.687 357.657 316.298C357.607 318.067 358.906 318.053 360.499 318.092L389.941 318.837Z" fill="#AE5D29"/>
<path fill-rule="evenodd" clip-rule="evenodd" d="M507.447 124.359C507.602 125.932 543.503 170.553 521.8 170.674C500.098 170.795 482.016 171.829 471.109 176.723L466.503 165.939C467.948 163.752 469.493 161.58 471.109 159.426C468.782 158.357 466.423 157.331 464.012 156.366L458.173 137.21C468.375 134.176 484.8 129.893 507.447 124.359Z" fill="#E0492C"/>
<path fill-rule="evenodd" clip-rule="evenodd" d="M354.697 305.966C355.931 286.656 358.599 267.53 363.195 248.723L403.004 259.544C398.145 279.625 395.569 300.858 395.248 321.686C394.81 321.689 382.158 321.786 381.348 321.793C381.143 321.032 380.924 319.654 380.77 318.853C378.196 319.818 375.629 320.843 373.078 321.856C364.417 321.922 346.765 322.059 338.167 322.125C338.168 321.229 338.177 319.42 338.197 318.533C336.405 310.136 348.479 311.312 354.697 305.966Z" fill="#383535"/>
<path fill-rule="evenodd" clip-rule="evenodd" d="M509.733 170.645C534.19 170.645 554.016 149.922 554.016 124.359H460.978C460.978 149.922 480.804 170.645 505.26 170.645H509.733Z" fill="#E0492C"/>
<path fill-rule="evenodd" clip-rule="evenodd" d="M527.834 170.645C542.294 170.645 554.016 158.923 554.016 144.463V124.359H460.978C460.978 149.922 480.804 170.645 505.26 170.645H527.834Z" fill="#E0492C"/>
<path fill-rule="evenodd" clip-rule="evenodd" d="M455.251 124.773H555.527V74.7187C555.527 63.7467 546.633 54.8516 535.66 54.8516H475.119C464.146 54.8516 455.251 63.7467 455.251 74.7187V124.773Z" fill="#D7DBE2"/>
<path fill-rule="evenodd" clip-rule="evenodd" d="M487.268 54.8516C487.268 62.592 491.009 72.41 503.398 72.41C518.125 72.41 524.203 64.0324 524.203 54.8516H487.268Z" fill="#AE5D29"/>
<path fill-rule="evenodd" clip-rule="evenodd" d="M483.933 153.952C471.84 154.228 461.554 153.293 450.593 149.626C449.581 149.287 448.721 148.642 448.814 147.579L450.289 130.707C461.548 131.197 473.305 133.383 485.68 135.323C485.913 141.363 486.151 146.939 486.369 151.777C486.429 153.109 485.266 153.922 483.933 153.952Z" fill="#C53B26"/>
<path fill-rule="evenodd" clip-rule="evenodd" d="M561.346 131.242L562.684 146.541C562.842 148.339 561.752 150.025 560.037 150.588C548.542 154.365 532.079 156.304 521.271 157.061C519.56 157.181 518.054 155.964 517.796 154.267C517.063 149.458 516.535 144.117 516.173 138.436C527.724 137.986 548.68 135.971 561.346 131.242Z" fill="#C53B26"/>
<path fill-rule="evenodd" clip-rule="evenodd" d="M542.267 55.692C550.445 58.1526 556.403 65.7368 556.403 74.7162L561.348 131.243C548.682 135.972 527.725 137.986 516.174 138.436C514.747 116.039 512.982 71.0049 526.541 63.992C526.541 63.992 536.359 53.7064 542.267 55.692Z" fill="#E0492C"/>
<path fill-rule="evenodd" clip-rule="evenodd" d="M485.68 135.322C472.774 135.994 462.021 135.059 450.289 130.706L455.186 74.7186C455.186 64.7158 462.579 56.4434 472.199 55.0586C473.445 59.9045 477.966 61.4245 484.462 64.462C484.157 85.2207 484.873 114.43 485.68 135.322Z" fill="#E0492C"/>
<path fill-rule="evenodd" clip-rule="evenodd" d="M483.236 159.03C483.014 163.292 484.576 167.222 487.467 170.108C490.344 172.974 494.57 174.736 499.261 174.555C504.399 174.353 509.581 173.919 514.804 173.176C520.025 172.433 525.288 171.388 530.578 169.867C535.275 168.513 539.994 166.845 544.672 164.587C549.342 162.334 553.99 159.565 558.355 155.944L559.172 155.272L559.974 154.554C560.504 154.069 561.041 153.602 561.56 153.093L563.102 151.541C563.617 151.028 564.098 150.451 564.593 149.904C566.544 147.673 568.371 145.242 569.925 142.58C571.481 139.93 572.846 137.114 573.855 134.169C574.867 131.231 575.608 128.207 576.038 125.185C576.441 122.169 576.594 119.163 576.486 116.24C576.468 115.505 576.399 114.793 576.352 114.069C576.303 113.346 576.244 112.626 576.147 111.927L575.873 109.813L575.505 107.752L575.313 106.724L575.084 105.722L574.612 103.724L574.066 101.782C573.88 101.136 573.699 100.485 573.482 99.8667C573.064 98.6146 572.651 97.3523 572.171 96.1573L571.465 94.3452L570.705 92.5877C566.589 83.254 561.217 75.3177 555.458 68.0804C554.137 66.3898 552.481 65.1504 550.721 64.2593C548.929 63.4173 547.024 62.9376 545.086 62.8983C541.206 62.8085 537.332 64.3224 534.249 67.2772C531.181 70.2179 529.436 73.9941 528.962 77.5988C528.731 79.403 528.775 81.1927 529.193 82.8304C529.556 84.493 530.31 86.0007 531.345 87.3351C535.934 93.0693 539.867 99.0784 542.444 104.975C545.059 110.862 546.132 116.533 545.485 120.868C545.326 121.96 545.061 122.982 544.731 123.973C544.405 124.965 543.926 125.896 543.391 126.83C542.862 127.764 542.173 128.664 541.394 129.558C540.63 130.459 539.703 131.325 538.685 132.17C537.688 133.027 536.512 133.817 535.299 134.598C534.668 134.973 534.053 135.364 533.373 135.714C532.725 136.087 532.021 136.421 531.326 136.766C528.523 138.128 525.382 139.251 522.102 140.197C518.405 141.266 514.477 142.057 510.443 142.629C506.408 143.202 502.26 143.557 498.056 143.722C494.232 143.868 490.74 145.571 488.035 148.296C485.346 151.002 483.456 154.783 483.236 159.03Z" fill="#AE5D29"/>
<path fill-rule="evenodd" clip-rule="evenodd" d="M473.322 169.549C473.096 171.862 474.927 173.94 477.43 174.117C488.298 174.907 499.359 174.972 510.632 173.703C511.925 173.558 513.04 172.953 513.781 172.071C514.521 171.199 514.882 170.085 514.713 168.936C514.361 166.626 512.114 165.085 509.693 165.34C499.077 166.537 488.499 166.485 478.05 165.725C475.66 165.556 473.548 167.236 473.322 169.549Z" fill="#AE5D29"/>
<path fill-rule="evenodd" clip-rule="evenodd" d="M485.298 143.674C485.248 144.835 485.637 145.902 486.32 146.691C487.003 147.485 487.978 147.988 489.067 148.001C493.301 148.086 497.513 148.01 501.675 147.744C502.21 147.708 502.783 147.406 503.334 146.975C503.884 146.538 504.407 145.955 504.859 145.389C505.312 144.82 505.691 144.258 505.958 143.838C506.225 143.421 506.375 143.133 506.375 143.133C505.14 143.258 504.623 142.238 503.876 141.252C503.129 140.274 502.141 139.279 499.926 139.424C496.415 139.618 492.839 139.659 489.234 139.587C488.203 139.575 487.251 140.016 486.535 140.744C485.822 141.479 485.348 142.513 485.298 143.674Z" fill="#AE5D29"/>
<path fill-rule="evenodd" clip-rule="evenodd" d="M473.227 146.993C472.976 149.31 474.592 151.354 476.838 151.564C484.34 152.187 491.852 152.436 499.278 152.088C499.831 152.063 500.353 151.924 500.82 151.688C501.285 151.443 501.695 151.107 502.028 150.703C502.695 149.895 503.054 148.817 502.968 147.658C502.882 146.499 502.374 145.479 501.639 144.764C501.272 144.408 500.848 144.127 500.386 143.946C499.922 143.755 499.419 143.658 498.897 143.681C491.903 144.01 484.741 143.776 477.554 143.18C475.417 142.978 473.478 144.689 473.227 146.993Z" fill="#AE5D29"/>
<path fill-rule="evenodd" clip-rule="evenodd" d="M514.134 176.101C519.518 175.366 524.954 174.337 530.442 172.823C530.742 172.919 531.087 172.996 531.49 173.052C532.36 173.215 533.466 173.308 534.806 173.226C535.475 173.191 536.199 173.132 536.976 173.045C537.756 172.938 538.59 172.798 539.474 172.633C543.007 171.934 547.382 170.636 552.356 168.282C552.976 168.006 553.609 167.66 554.247 167.333C554.886 166.993 555.531 166.673 556.185 166.287C557.493 165.524 558.828 164.737 560.181 163.8C562.885 161.971 565.674 159.79 568.384 157.1C571.092 154.426 573.729 151.283 576.044 147.669C578.361 144.063 580.336 139.983 581.745 135.667C583.161 131.354 584.004 126.829 584.287 122.405C584.577 117.973 584.302 113.667 583.666 109.625C583.028 105.578 582.027 101.79 580.829 98.2598C579.606 94.7589 578.185 91.5218 576.672 88.5044C573.605 82.5303 572.536 78.9961 565.753 69.8819C558.969 60.7677 547.997 55.8302 542.82 55.8872C537.631 55.9163 532.527 58.159 528.59 62.2368C524.637 66.3304 522.526 71.4274 522.017 76.2257C521.539 81.0342 522.586 85.5585 525.381 88.8966C527.524 92.4891 529.654 96.1438 531.511 99.7297C531.735 100.175 531.959 100.621 532.185 101.069L532.527 101.735L532.837 102.397C533.049 102.835 533.262 103.275 533.474 103.714L534.048 105.011L534.341 105.655L534.598 106.29C534.766 106.71 534.958 107.133 535.12 107.547C535.419 108.369 535.758 109.187 536.002 109.965C537.111 113.12 537.605 115.816 537.759 117.787C537.903 119.791 537.781 121.002 537.474 122.301C537.313 122.951 537.073 123.633 536.714 124.379C536.607 124.562 536.549 124.76 536.423 124.947C536.305 125.137 536.194 125.332 536.089 125.534C535.81 125.919 535.576 126.335 535.246 126.736C535.099 126.943 534.952 127.152 534.767 127.352C534.595 127.561 534.425 127.768 534.256 127.973C533.86 128.371 533.528 128.803 533.097 129.197C532.892 129.402 532.691 129.606 532.491 129.807C532.272 130.005 532.056 130.203 531.843 130.396C531.438 130.804 530.949 131.164 530.525 131.552C528.738 133.061 526.874 134.392 525.3 135.547C524.524 136.137 523.789 136.656 523.171 137.154C522.563 137.664 522.015 138.089 521.62 138.509C521.414 138.691 521.251 138.86 521.112 139.023C517.414 140.045 513.483 140.8 509.447 141.351L514.134 176.101Z" fill="#E0492C"/>
<path fill-rule="evenodd" clip-rule="evenodd" d="M530.262 172.872L520.806 138.379C517.175 139.369 513.319 140.114 509.353 140.653L514.134 176.098C519.458 175.374 524.836 174.352 530.262 172.872Z" fill="#C53B26"/>
<path fill-rule="evenodd" clip-rule="evenodd" d="M529.347 35.9413C548.515 38.2789 550.337 54.5321 542.268 56.1605C535.892 57.4476 531.804 64.9317 526.212 67.8066C524.965 68.448 523.496 67.4658 523.594 66.0664C523.621 65.67 523.649 65.2758 523.676 64.885C523.984 60.5505 523.336 55.0066 518.99 55.0398C511.2 55.0978 499.535 55.0889 492.04 55.023C487.974 54.987 484.625 58.6828 484.526 62.7475C484.51 63.4146 484.495 64.0897 484.481 64.7714C484.454 66.1455 482.964 66.9898 481.771 66.3067C476.718 63.4123 473.269 59.6781 472.2 55.5251C471.968 54.6251 471.841 53.7069 471.841 52.7723C471.841 41.9275 509.866 33.5658 529.347 35.9413Z" fill="#C53B26"/>
<path fill-rule="evenodd" clip-rule="evenodd" d="M473.534 158.99C473.613 161.119 473.253 163.161 472.487 165.031C472.103 165.963 471.621 166.863 471.041 167.691C470.459 168.515 469.781 169.283 469.017 169.985C465.972 172.772 461.432 174.408 456.264 173.784C454.866 173.638 453.409 173.381 451.979 173.16C450.512 172.872 449.064 172.61 447.559 172.222L446.441 171.947C446.069 171.854 445.682 171.733 445.304 171.626L444.164 171.291L443.595 171.121C443.402 171.063 443.159 170.976 442.944 170.903C442.056 170.594 441.178 170.287 440.294 169.945C439.398 169.577 438.507 169.195 437.623 168.801C434.114 167.167 430.819 165.099 427.93 162.575C425.045 160.05 422.582 157.059 420.694 153.734C419.317 151.295 418.235 148.686 417.494 145.976C416.76 143.264 416.345 140.465 416.211 137.643C416.076 134.818 416.278 131.975 416.664 129.16C416.773 128.458 416.889 127.755 417.014 127.055L417.108 126.53L417.202 126.097L417.392 125.237C417.635 124.073 417.938 122.985 418.238 121.884C419.472 117.53 421.073 113.618 422.812 109.913C424.56 106.217 426.476 102.758 428.491 99.4474C432.529 92.8366 436.953 86.7956 441.573 81.0441C446.205 75.3089 451.042 69.8753 456.024 64.6502C458.329 62.2425 461.675 61.3032 465.165 61.7805C468.653 62.2439 472.277 64.1079 475.249 67.1609C478.22 70.2129 479.998 73.8573 480.552 77.2501C481.092 80.6406 480.422 83.7866 478.35 85.9489C473.869 90.6485 469.585 95.4701 465.6 100.405C461.633 105.34 457.955 110.4 454.845 115.497C453.295 118.041 451.893 120.594 450.711 123.097C449.535 125.593 448.552 128.06 447.923 130.307C447.777 130.862 447.61 131.423 447.512 131.94L447.422 132.334L447.377 132.528L447.365 132.637C447.346 132.782 447.321 132.925 447.287 133.068C447.196 133.643 447.144 134.226 447.155 134.809C447.175 135.971 447.416 137.154 448.013 138.161C448.778 139.572 450.13 140.568 451.576 141.204L452.128 141.431C452.338 141.498 452.566 141.567 452.778 141.653C452.84 141.674 452.869 141.694 452.956 141.719L453.228 141.796L453.771 141.954C453.955 142.005 454.125 142.067 454.32 142.113L454.905 142.252C455.662 142.458 456.519 142.599 457.344 142.773C458.225 142.897 459.069 143.064 459.999 143.154C463.292 143.556 466.48 145.373 469.015 148.166C469.647 148.86 470.233 149.622 470.759 150.441C471.288 151.255 471.761 152.111 472.158 153.024C472.952 154.847 473.455 156.862 473.534 158.99Z" fill="#AE5D29"/>
<path fill-rule="evenodd" clip-rule="evenodd" d="M483.451 169.567C483.561 170.723 483.159 171.819 482.408 172.657C481.65 173.483 480.536 174.039 479.267 174.135C473.723 174.529 468.026 174.646 462.103 174.31C459.13 174.122 456.117 173.849 452.985 173.321C449.849 172.801 446.678 172.113 443.3 171.026C442.417 170.726 441.617 170.316 440.945 169.841C440.272 169.366 439.702 168.773 439.305 168.193C438.494 167.028 438.352 165.774 438.902 164.746C439.449 163.725 440.545 163.099 441.815 162.798C442.449 162.647 443.128 162.617 443.817 162.639C444.505 162.661 445.208 162.784 445.908 163.025C448.759 163.942 451.553 164.555 454.34 165.016C457.126 165.487 459.874 165.736 462.603 165.909C468.054 166.218 473.411 166.116 478.687 165.74C479.895 165.647 481.025 166.035 481.888 166.729C482.747 167.411 483.341 168.41 483.451 169.567Z" fill="#AE5D29"/>
<path fill-rule="evenodd" clip-rule="evenodd" d="M487.961 161.554C488.246 163.848 486.541 165.984 484.115 166.213C479.423 166.681 474.676 166.985 469.85 167.02C469.229 167.023 468.637 166.908 468.102 166.697C467.565 166.48 467.083 166.156 466.686 165.768C465.889 164.989 465.431 163.925 465.469 162.765C465.507 161.603 466.024 160.563 466.805 159.818C467.197 159.445 467.654 159.152 468.159 158.943C468.663 158.728 469.214 158.607 469.793 158.604C474.294 158.573 478.796 158.287 483.281 157.839C484.434 157.734 485.526 158.079 486.373 158.744C487.219 159.412 487.82 160.401 487.961 161.554Z" fill="#AE5D29"/>
<path fill-rule="evenodd" clip-rule="evenodd" d="M487.968 154.022C488.269 156.323 486.631 158.423 484.306 158.678C479.801 159.153 475.275 159.469 470.738 159.535C469.57 159.537 468.511 159.082 467.764 158.31C467.016 157.531 466.582 156.469 466.609 155.308C466.637 154.146 467.111 153.104 467.83 152.359C468.552 151.608 469.532 151.121 470.613 151.12C474.836 151.06 479.125 150.763 483.428 150.309C485.634 150.067 487.669 151.714 487.968 154.022Z" fill="#AE5D29"/>
<path fill-rule="evenodd" clip-rule="evenodd" d="M471.733 143.61C471.764 144.769 471.37 145.84 470.698 146.614C470.032 147.377 469.079 147.856 468.031 147.857C463.986 147.809 460.04 147.52 456.43 146.879C455.974 146.787 455.52 146.429 455.112 145.95C454.711 145.461 454.387 144.827 454.118 144.226C453.843 143.629 453.678 143.023 453.569 142.579C453.46 142.135 453.41 141.847 453.41 141.847C454.268 142.113 454.871 141.161 455.59 140.252C455.955 139.796 456.326 139.365 456.859 139.056C457.39 138.749 457.975 138.629 458.873 138.75C461.634 139.184 464.791 139.412 468.111 139.442C469.071 139.44 469.948 139.903 470.601 140.664C471.259 141.414 471.703 142.446 471.733 143.61Z" fill="#AE5D29"/>
<path fill-rule="evenodd" clip-rule="evenodd" d="M483.523 147.01C483.782 149.316 482.179 151.379 479.949 151.575C476.227 151.898 472.525 152.062 468.869 152.063C465.217 152.058 461.61 151.868 458.142 151.409C457.121 151.247 456.254 150.656 455.758 149.778C455.257 148.902 455.093 147.799 455.33 146.661C455.567 145.524 456.142 144.563 456.835 143.926C457.528 143.291 458.403 142.929 459.269 143.069C462.263 143.465 465.518 143.644 468.88 143.647C472.247 143.646 475.717 143.496 479.247 143.188C481.345 143.005 483.267 144.697 483.523 147.01Z" fill="#AE5D29"/>
<path fill-rule="evenodd" clip-rule="evenodd" d="M437.878 171.971C429.382 168.753 423.221 162.288 417.816 155.373C406.182 145.022 408.473 122.893 414.573 109.099C422.568 89.7495 436.216 71.87 448.807 62.8903C461.399 53.9106 463.609 55.055 472.095 55.055C472.095 58.0523 474.304 61.5301 478.722 65.4884C482.363 78.4727 482.095 87.3239 477.918 92.0422C467.888 106.881 461.12 117.852 452.996 133.658C451.36 134.386 450.3 136.175 449.38 137.632C450.088 138.764 451.233 139.552 452.455 140.046L437.878 171.971Z" fill="#E0492C"/>
<path fill-rule="evenodd" clip-rule="evenodd" d="M423.217 162.174L444.723 133.188C444.723 133.188 451.668 138.972 452.746 139.409L437.878 171.973C434.06 170.342 430.449 168.247 427.255 165.655C424.06 163.069 423.217 162.174 423.217 162.174Z" fill="#C53B26"/>
<path fill-rule="evenodd" clip-rule="evenodd" d="M472.203 30.1556V22.1454C472.203 20.373 473.354 18.9368 474.774 18.9368C476.195 18.9368 477.346 17.5 477.346 15.7281V11.9019C477.346 5.32842 485.369 0 490.57 0H496.047V52.3631H476.377C470.715 52.3631 466.125 46.361 466.125 38.9563V36.2334C466.125 34.555 467.165 33.1945 468.449 33.1945H469.879C471.163 33.1945 472.203 31.834 472.203 30.1556Z" fill="black"/>
<path fill-rule="evenodd" clip-rule="evenodd" d="M505.956 52.3631H496.98V0H505.956C519.074 0 529.707 10.6335 529.707 23.7509V28.6122C529.707 41.7297 519.074 52.3631 505.956 52.3631Z" fill="black"/>
<path fill-rule="evenodd" clip-rule="evenodd" d="M516.617 34.1328H495.578V58.2727C495.578 64.7737 500.288 70.0436 506.098 70.0436C511.907 70.0436 516.617 64.7737 516.617 58.2727V34.1328Z" fill="#AE5D29"/>
<path fill-rule="evenodd" clip-rule="evenodd" d="M494.619 49.0922H496.951C507.812 49.0922 516.617 40.2872 516.617 29.4256V20.2003C516.617 11.8853 509.877 5.14453 501.561 5.14453H498.947C490.631 5.14453 483.89 11.8853 483.89 20.2003V38.3633C483.89 44.2888 488.694 49.0922 494.619 49.0922Z" fill="#AE5D29"/>
<path fill-rule="evenodd" clip-rule="evenodd" d="M511.007 32.4964C511.007 35.7238 513.623 38.3405 516.851 38.3405C520.079 38.3405 522.695 35.7238 522.695 32.4964C522.695 29.2691 520.079 26.6523 516.851 26.6523C513.623 26.6523 511.007 29.2691 511.007 32.4964Z" fill="#AE5D29"/>
<path fill-rule="evenodd" clip-rule="evenodd" d="M517.988 30.0039C517.565 30.0039 516.98 30.1015 516.379 30.4018C515.376 30.9036 514.741 31.8211 514.698 33.1521L514.696 33.2962H516.099C516.099 32.4381 516.426 31.9463 517.006 31.6563C517.222 31.5486 517.46 31.4773 517.699 31.4374C517.816 31.4178 517.908 31.4094 517.961 31.4071L517.988 31.4065V30.0039Z" fill="black"/>
<path opacity="0.12" fill-rule="evenodd" clip-rule="evenodd" d="M506.448 50.1817C510.794 48.6444 512.962 44.7616 513.82 39.5391C510.421 45.1971 504.255 49.0042 497.194 49.09L496.95 49.0915H495.578C499.289 51.0691 502.912 51.4325 506.448 50.1817Z" fill="black"/>
<path fill-rule="evenodd" clip-rule="evenodd" d="M516.928 26.6491H517.646C520.382 23.9879 521.434 18.5646 521.751 13.3007C522.185 6.08721 509.663 0 502.437 0H494.03L484.359 12.1557H502.111C505.278 20.611 511.318 26.6491 516.928 26.6491Z" fill="black"/>
<path d="M495.478 24.9664L494.099 24.7109L492.094 35.5338H496.711V34.1312L493.781 34.131L495.478 24.9664Z" fill="black"/>
<path fill-rule="evenodd" clip-rule="evenodd" d="M501.382 26.4104C501.382 25.6357 502.01 25.0078 502.785 25.0078C503.56 25.0078 504.188 25.6357 504.188 26.4104C504.188 27.1851 503.56 27.813 502.785 27.813C502.01 27.813 501.382 27.1851 501.382 26.4104Z" fill="black"/>
<path fill-rule="evenodd" clip-rule="evenodd" d="M489.226 26.4104C489.226 25.6357 489.854 25.0078 490.629 25.0078C491.403 25.0078 492.031 25.6357 492.031 26.4104C492.031 27.1851 491.403 27.813 490.629 27.813C489.854 27.813 489.226 27.1851 489.226 26.4104Z" fill="black"/>
<path d="M500.215 19.1719V20.5745C501.724 20.5745 503.1 20.9791 504.316 21.655C504.742 21.8916 505.116 22.1445 505.435 22.396L505.617 22.5444C505.686 22.6026 505.738 22.6498 505.774 22.6837L505.797 22.7067L506.789 21.7149C506.454 21.3796 505.848 20.9018 504.997 20.4289C503.646 19.678 502.119 19.2135 500.445 19.1745L500.215 19.1719Z" fill="black"/>
<path d="M493.04 20.7344C492.38 22.1118 489.462 23.4216 487.992 22.7872L487.909 22.7485L487.279 24.0016C489.438 25.0868 493.191 23.4618 494.255 21.4402L494.305 21.3405L493.04 20.7344Z" fill="black"/>
<path fill-rule="evenodd" clip-rule="evenodd" d="M493.902 39.7385C493.902 40.5132 494.53 41.1411 495.304 41.1411C496.079 41.1411 496.707 40.5132 496.707 39.7385C496.707 38.9638 496.079 38.3359 495.304 38.3359C494.53 38.3359 493.902 38.9638 493.902 39.7385Z" fill="black"/>
</svg>
