<svg width="465" height="765" viewBox="0 0 465 765" fill="none" xmlns="http://www.w3.org/2000/svg">
<path fill-rule="evenodd" clip-rule="evenodd" d="M446.845 13.7641L199.691 5.1211C189.508 4.76318 180.948 12.6464 180.429 22.7846L180.416 23.0925C180.416 23.0932 180.416 23.0938 180.417 23.0944L161.299 571.339C160.942 581.624 168.989 590.253 179.274 590.615L426.428 599.258C436.612 599.616 445.172 591.732 445.691 581.594L445.704 581.286C445.704 581.286 445.704 581.285 445.702 581.284L464.821 33.04C465.177 22.7546 457.131 14.1256 446.845 13.7641Z" fill="#3F99E9"/>
<path fill-rule="evenodd" clip-rule="evenodd" d="M439.822 8.65469L192.668 0.0117205C182.485 -0.346198 173.925 7.537 173.405 17.6753L173.392 17.9832C173.392 17.9838 173.392 17.9844 173.394 17.9851L154.276 566.229C153.919 576.515 161.966 585.144 172.251 585.505L419.405 594.148C429.588 594.506 438.148 586.623 438.668 576.485L438.681 576.177C438.681 576.176 438.681 576.176 438.679 576.175L457.797 27.9306C458.154 17.6452 450.107 9.0162 439.822 8.65469Z" fill="#283C68"/>
<path fill-rule="evenodd" clip-rule="evenodd" d="M384.663 33.6462C384.551 36.8557 381.906 39.3789 378.718 39.3583L378.547 39.3547L251.192 34.9031C247.986 34.7911 245.465 32.1437 245.485 28.9529L245.489 28.7815L245.988 14.4771L197.21 12.7721C191.45 12.5708 186.618 17.081 186.417 22.846L167.619 561.681C167.418 567.446 171.924 572.282 177.683 572.483L415.194 580.785C420.953 580.987 425.785 576.477 425.986 570.712L444.785 31.8771C444.986 26.1121 440.48 21.2754 434.72 21.0741L385.162 19.3418L384.663 33.6462Z" fill="#D4FDFD"/>
<mask id="mask0" mask-type="alpha" maskUnits="userSpaceOnUse" x="0" y="44" width="440" height="721">
<path d="M0.000518799 44.8867V764.42H349.803V661.73L412.521 664.064C417.705 664.246 422.054 660.186 422.235 654.997L439.154 170.018C439.335 164.829 435.28 160.476 430.096 160.295L421.707 44.8867H0.000518799Z" fill="white"/>
</mask>
<g mask="url(#mask0)">
<path fill-rule="evenodd" clip-rule="evenodd" d="M98.1424 683.701L142.793 706.393C145.195 707.613 148.123 706.686 149.332 704.322C177.504 649.5 213.141 581.217 241.783 526.187C245.37 519.3 242.954 510.941 236.379 507.516L207.114 492.265C200.541 488.84 192.3 491.646 188.71 498.537C173.324 528.079 142.369 587.542 127.021 617.119C116.667 637.082 106.335 656.998 96.0309 677.113C94.7946 679.532 95.7401 682.481 98.1424 683.701Z" fill="#EDB98A"/>
<path fill-rule="evenodd" clip-rule="evenodd" d="M298.485 274.719L360.831 307.297C362.837 308.345 363.317 311.388 361.903 314.095C327.996 379.467 205.142 616.518 173.699 677.758L101.918 640.64C132.306 582.245 258.36 342.348 291.357 279.498C292.438 276.564 295.795 273.118 298.485 274.719Z" fill="#694DD7"/>
<path fill-rule="evenodd" clip-rule="evenodd" d="M98.9158 671.458L152.153 698.79L162.076 679.54L108.908 652.074L98.9158 671.458Z" fill="white"/>
<path fill-rule="evenodd" clip-rule="evenodd" d="M104.53 660.566C108.206 662.461 121.458 669.289 133.815 675.657C127.51 685.919 150.485 697.718 155.176 686.664C156.793 687.498 157.727 687.98 157.727 687.98L145.583 711.647L68.1019 672.392L72.1164 664.539C75.3353 658.231 97.2202 667.545 104.53 660.566Z" fill="#8773E0"/>
<path fill-rule="evenodd" clip-rule="evenodd" d="M437.146 274.312C437.146 315.914 402.07 349.638 358.801 349.638C315.531 349.638 280.455 315.914 280.455 274.312" fill="#7256DE"/>
<path fill-rule="evenodd" clip-rule="evenodd" d="M586.422 671.934L604.342 625.167C605.3 622.648 604.308 619.895 602.125 619.023C595.824 616.695 589.891 613.7 583.818 610.968C564.478 601.364 546.292 589.215 530.08 574.981C506.897 554.159 488.051 529.598 473.319 501.618C471.699 498.641 468.94 496.539 465.757 495.508C457.993 491.336 432.97 508.579 425.834 510.553C422.493 512.155 420.174 515.068 419.161 518.548C417.891 543.704 470.539 602.377 490.357 619.739C502.175 630.106 515.638 640.236 528.885 648.697C538.042 654.35 547.772 659.819 557.376 664.649C563.693 666.332 583.175 680.466 586.422 671.934Z" fill="#EDB98A"/>
<path fill-rule="evenodd" clip-rule="evenodd" d="M362.426 277.684L432.75 279.451C436.59 279.57 437.081 284.664 436.739 287.944C435.377 404.387 469.205 539.141 579.137 597.765L540.446 668.706C438.221 614.381 381.148 503.106 365.227 391.834C362.983 377.584 351.079 278.4 362.426 277.684Z" fill="#7256DE"/>
<path fill-rule="evenodd" clip-rule="evenodd" d="M396.825 278.961L398.331 278.998C394.238 412.047 434.735 565.715 560.203 632.602L559.482 633.925C433.497 566.762 392.71 412.589 396.825 278.961Z" fill="white"/>
<path fill-rule="evenodd" clip-rule="evenodd" d="M32.6333 189.152C32.432 202.879 43.4049 214.169 57.1419 214.369L98.5957 214.975L276.63 217.579C290.322 217.779 301.584 206.814 301.784 193.089C301.986 179.362 291.05 168.073 277.359 167.873L99.3239 165.269L57.8693 164.663C44.1331 164.463 32.8345 175.427 32.6333 189.152Z" fill="#D29863"/>
<path fill-rule="evenodd" clip-rule="evenodd" d="M27.8438 207.164C27.7895 210.907 30.7813 213.986 34.5276 214.041L74.4746 214.625C78.2209 214.68 81.3024 211.69 81.3567 207.946C81.4117 204.202 78.4199 201.123 74.6728 201.069L34.7267 200.485C30.9803 200.43 27.8988 203.42 27.8438 207.164Z" fill="#D29863"/>
<path fill-rule="evenodd" clip-rule="evenodd" d="M26.5151 195.093C26.4608 198.837 29.4526 201.916 33.1989 201.971L46.5696 202.166C50.3159 202.221 53.3974 199.23 53.4524 195.487C53.5074 191.744 50.5149 188.665 46.7678 188.61L33.3979 188.415C29.6516 188.36 26.5701 191.349 26.5151 195.093Z" fill="#D29863"/>
<path fill-rule="evenodd" clip-rule="evenodd" d="M25.183 183.02C25.1287 186.763 28.1205 189.842 31.8668 189.897L45.2375 190.093C48.9838 190.148 52.0653 187.157 52.1203 183.413C52.1754 179.67 49.1828 176.591 45.4357 176.536L32.0658 176.341C28.3195 176.286 25.238 179.276 25.183 183.02Z" fill="#D29863"/>
<path fill-rule="evenodd" clip-rule="evenodd" d="M32.2424 164.293C32.1874 168.036 35.1799 171.115 38.9262 171.17L57.0148 171.434C60.7619 171.49 63.8434 168.499 63.8977 164.755C63.9527 161.012 60.9602 157.933 57.2139 157.878L39.1252 157.614C35.3781 157.559 32.2967 160.549 32.2424 164.293Z" fill="#D29863"/>
<path fill-rule="evenodd" clip-rule="evenodd" d="M7.60565 170.097C7.55062 173.842 10.5424 176.921 14.2895 176.975L54.9895 177.571C58.7358 177.625 61.8173 174.635 61.8723 170.892C61.9266 167.148 58.9348 164.069 55.1885 164.014L14.4877 163.419C10.7414 163.364 7.65992 166.354 7.60565 170.097Z" fill="#D29863"/>
<path fill-rule="evenodd" clip-rule="evenodd" d="M278.007 276.517H439.68V195.878C439.68 178.202 425.339 163.871 407.648 163.871H310.038C292.347 163.871 278.007 178.202 278.007 195.878V276.517Z" fill="white"/>
<path fill-rule="evenodd" clip-rule="evenodd" d="M483.252 441.127C490.106 440.666 496.104 437.447 500.252 432.493C502.304 430.024 503.981 427.114 504.917 423.954C505.867 420.794 506.225 417.365 505.873 413.837C504.358 398.349 502.196 382.97 499.836 367.631C495.098 337.993 488.755 308.667 480.995 279.693C473.213 250.725 463.964 222.113 453.019 194.012C450.429 187.544 445.426 182.751 439.579 180.315C436.669 179.087 433.444 178.48 430.209 178.509C426.97 178.54 423.692 179.216 420.542 180.581C417.39 181.947 414.663 183.868 412.418 186.153C410.171 188.44 408.434 191.073 407.151 193.941C404.617 199.669 404.279 206.119 406.691 212.131C416.897 238.338 425.606 265.255 432.941 292.562C440.256 319.874 446.252 347.58 450.711 375.489C452.927 389.925 454.968 404.392 456.381 418.892C456.71 422.194 457.717 425.272 459.258 428.028C460.814 430.786 462.755 433.228 465.179 435.24C469.99 439.259 476.399 441.589 483.252 441.127Z" fill="#EDB98A"/>
<path d="M248.91 166.888L303.234 164.715L300.518 220.125L250.54 221.755L248.91 166.888Z" fill="white"/>
<path d="M456.97 192.421L426.548 170.691L392.324 197.853L407.535 239.14L456.97 192.421Z" fill="white"/>
<path fill-rule="evenodd" clip-rule="evenodd" d="M385.769 166.942H404.422V156.073C404.422 149.573 399.163 144.305 392.674 144.305H379.578C377.906 144.305 376.551 145.662 376.551 147.337V157.709C376.551 162.807 380.678 166.942 385.769 166.942Z" fill="black"/>
<path fill-rule="evenodd" clip-rule="evenodd" d="M400.719 186.56C393.612 186.56 387.85 180.789 387.85 173.67V166.941H409.936C411.883 166.941 413.461 168.522 413.461 170.473V173.795C413.461 180.845 407.756 186.56 400.719 186.56Z" fill="black"/>
<path fill-rule="evenodd" clip-rule="evenodd" d="M379.565 151.855C391.213 151.855 400.656 142.395 400.656 130.727V112.617H379.565V151.855Z" fill="black"/>
<path fill-rule="evenodd" clip-rule="evenodd" d="M362.39 155.624H351.694V76.3945H362.39C383.523 76.3945 400.656 93.5563 400.656 114.727V117.291C400.656 138.462 383.523 155.624 362.39 155.624Z" fill="black"/>
<path fill-rule="evenodd" clip-rule="evenodd" d="M350.789 146.569H357.719V76.3945H350.789C329.656 76.3945 312.523 88.3189 312.523 114.57V127.107C312.523 146.569 329.656 146.569 350.789 146.569Z" fill="black"/>
<path fill-rule="evenodd" clip-rule="evenodd" d="M376.551 131.477H342.654V170.437C342.654 180.929 350.242 189.435 359.602 189.435C368.963 189.435 376.551 180.929 376.551 170.437V131.477Z" fill="#EDB98A"/>
<path fill-rule="evenodd" clip-rule="evenodd" d="M341.108 155.624H344.865C362.365 155.624 376.551 141.414 376.551 123.884V108.995C376.551 95.5746 365.691 84.6953 352.293 84.6953H348.08C334.683 84.6953 323.822 95.5746 323.822 108.995V138.309C323.822 147.872 331.561 155.624 341.108 155.624Z" fill="#EDB98A"/>
<path opacity="0.12" fill-rule="evenodd" clip-rule="evenodd" d="M360.165 157.384C367.167 154.903 370.66 148.636 372.043 140.207C366.566 149.339 356.632 155.483 345.256 155.622L344.863 155.624H342.652C348.631 158.816 354.468 159.402 360.165 157.384Z" fill="black"/>
<path fill-rule="evenodd" clip-rule="evenodd" d="M367.51 128.834C367.51 134.043 371.725 138.266 376.926 138.266C382.127 138.266 386.342 134.043 386.342 128.834C386.342 123.626 382.127 119.402 376.926 119.402C371.725 119.402 367.51 123.626 367.51 128.834Z" fill="#EDB98A"/>
<path d="M378.758 124.816C378.076 124.816 377.133 124.974 376.165 125.459C374.548 126.268 373.526 127.749 373.457 129.897L373.453 130.13H375.713C375.713 128.745 376.241 127.951 377.176 127.483C377.523 127.31 377.906 127.194 378.291 127.13C378.481 127.098 378.629 127.085 378.714 127.081L378.758 127.08V124.816Z" fill="black"/>
<path fill-rule="evenodd" clip-rule="evenodd" d="M377.305 119.405H378.462C382.871 115.11 384.565 106.357 385.076 97.8611C385.776 86.219 365.597 76.3945 353.954 76.3945C344.997 76.3945 336.61 80.7944 331.508 88.1695L326.083 96.0132H357.195C357.195 108.841 368.265 119.405 377.305 119.405Z" fill="black"/>
<path fill-rule="evenodd" clip-rule="evenodd" d="M351.942 118.627C351.942 117.383 352.95 116.375 354.194 116.375C355.437 116.375 356.445 117.383 356.445 118.627C356.445 119.87 355.437 120.878 354.194 120.878C352.95 120.878 351.942 119.87 351.942 118.627Z" fill="black"/>
<path fill-rule="evenodd" clip-rule="evenodd" d="M332.425 118.627C332.425 117.383 333.433 116.375 334.676 116.375C335.92 116.375 336.928 117.383 336.928 118.627C336.928 119.87 335.92 120.878 334.676 120.878C333.433 120.878 332.425 119.87 332.425 118.627Z" fill="black"/>
<path fill-rule="evenodd" clip-rule="evenodd" d="M342.454 116.676L340.24 116.266L337.023 133.64H344.434V131.388L339.73 131.388L342.454 116.676Z" fill="black"/>
<path fill-rule="evenodd" clip-rule="evenodd" d="M350.916 133.328C350.916 136.086 348.108 138.636 345.093 138.735L344.911 138.738V140.99C349.113 140.99 353.037 137.563 353.165 133.53L353.168 133.328H350.916Z" fill="black"/>
<path fill-rule="evenodd" clip-rule="evenodd" d="M350.064 108.871V111.123C352.486 111.123 354.694 111.772 356.648 112.857C357.233 113.183 357.759 113.528 358.219 113.874L358.443 114.047C358.704 114.253 358.887 114.413 358.987 114.509L359.025 114.546L360.617 112.953C360.079 112.415 359.107 111.648 357.741 110.889C355.571 109.684 353.12 108.938 350.432 108.875L350.064 108.871Z" fill="black"/>
<path fill-rule="evenodd" clip-rule="evenodd" d="M339.555 108.871C336.723 108.871 334.147 109.629 331.878 110.889C330.597 111.601 329.663 112.319 329.108 112.85L329.002 112.953L330.594 114.546L330.738 114.411C330.822 114.337 330.932 114.242 331.069 114.132L331.176 114.047C331.687 113.643 332.288 113.237 332.971 112.857C334.827 111.827 336.913 111.189 339.193 111.128L339.555 111.123V108.871Z" fill="black"/>
</g>
</svg>
