<svg width="59" height="56" viewBox="0 0 59 56" fill="none" xmlns="http://www.w3.org/2000/svg">
<path d="M38.5003 11.3275C38.7489 15.7876 38.891 20.2477 39.2462 24.6722C39.3883 26.4205 39.8856 28.1689 40.5605 29.8102C41.413 31.9867 43.5087 32.3792 45.3558 30.7022C46.5635 29.6318 47.487 28.2759 48.5527 27.0271C50.1866 25.1003 51.9982 23.5304 54.5912 23.1022C55.7634 22.8881 56.758 23.0665 57.5749 23.9942C58.3564 24.8862 58.1077 25.921 57.6104 26.7773C56.7579 28.1689 55.7634 29.4534 54.7333 30.7022C50.8615 35.2693 47.3449 40.0505 44.3612 45.2243C42.9404 47.6862 41.1288 49.8984 38.5003 51.1473C37.0439 51.8252 35.41 52.0036 33.8471 52.4318C31.6092 53.074 29.3004 53.6449 27.1336 54.4656C22.3028 56.321 18.6086 54.4299 15.1987 51.1829C13.0674 49.1491 11.8952 46.5444 10.723 43.9041C8.41418 38.7304 5.92773 33.628 3.4768 28.5257C2.4467 26.3848 1.23899 24.351 0.244406 22.2102C-0.323926 20.9613 0.102323 20.0337 1.48763 19.106C2.30461 18.5351 3.19263 18.6064 3.93857 19.213C4.64898 19.7839 5.25284 20.4618 5.82117 21.1754C8.16554 24.1726 10.4744 27.2412 12.8188 30.274C13.0674 30.5952 13.3516 31.0233 13.7068 31.166C14.2041 31.3444 15.021 31.5585 15.3407 31.2731C15.6604 31.0233 15.8025 30.0956 15.6249 29.6675C13.0319 23.7445 10.3678 17.8928 7.73929 11.9698C7.27752 10.8994 6.99335 9.79328 7.52616 8.68717C8.0945 7.50971 9.23116 7.22426 10.4033 7.25994C11.6466 7.33131 12.6412 8.00924 13.2095 9.15102C14.8079 12.4337 16.3708 15.7163 17.9693 19.0346C18.9283 20.997 19.8874 22.9595 20.882 24.9219C21.0596 25.2787 21.3082 25.6712 21.6634 25.8853C22.0542 26.0994 22.6225 26.2064 23.0132 26.1351C23.2263 26.0994 23.4395 25.3858 23.3684 25.0646C22.9422 23.1379 22.4449 21.2468 21.9476 19.3557C20.6333 14.289 19.3191 9.22238 18.0048 4.12004C17.6851 2.90689 17.6496 1.65807 18.7152 0.730367C19.6387 -0.0902904 20.7399 -0.161652 21.9121 0.230836C23.0843 0.623324 23.475 1.65807 23.8302 2.62145C25.7483 8.15196 27.6309 13.6825 29.5135 19.213C29.8687 20.2121 30.1529 21.2468 30.5791 22.2102C30.7212 22.567 31.2185 22.7811 31.5382 23.0308C31.7158 22.674 32.071 22.2815 32.1065 21.9247C32.2486 17.1078 32.2841 12.2552 32.4262 7.43835C32.4617 6.29656 32.6038 5.15478 32.9235 4.08436C33.3142 2.76417 34.0247 2.44304 35.4455 2.58576C37.0794 2.76417 38.0385 3.40642 38.1806 4.65525C38.3937 6.61769 38.4292 8.58013 38.5358 10.5426C38.5358 10.7923 38.5358 11.0778 38.5358 11.3275H38.5003Z" fill="#EE7A7F"/>
</svg>
