<svg width="186" height="249" viewBox="0 0 186 249" fill="none" xmlns="http://www.w3.org/2000/svg">
<path d="M150.42 153.157L141.526 189.511L112.476 182.404L91.7771 238.692L55.7072 229.867L76.4062 173.579L52.9245 167.834L32.2255 224.122L-3.60234 215.356L17.3387 159.127L-7.83757 152.968L1.05696 116.613L30.1065 123.721L39.5798 97.5852L14.8876 91.5439L23.7137 55.4693L52.5213 62.5174L71.7098 10.3057L107.296 19.0122L88.107 71.2239L111.589 76.969L131.019 24.8165L166.847 33.5822L147.659 85.794L172.351 91.8352L163.525 127.91L134.959 120.921L125.244 146.997L150.42 153.157ZM98.8893 112.096L75.4076 106.351L65.6923 132.427L89.174 138.172L98.8893 112.096Z" fill="#EE7A7F"/>
</svg>
