<svg width="1255" height="1288" viewBox="0 0 1255 1288" fill="none" xmlns="http://www.w3.org/2000/svg">
<path d="M962.533 493.314L1052.1 635.265L920.778 718.128L1033.85 962.801L870.791 1065.69L757.718 821.018L651.564 887.999L764.638 1132.67L602.671 1234.87L490.692 989.507L376.878 1061.32L287.309 919.372L418.633 836.508L365.623 723.397L253.997 793.831L165.117 652.973L295.347 570.8L190.42 343.887L351.292 242.379L456.219 469.292L562.372 402.31L458.539 174.706L620.506 72.5078L725.433 299.421L837.058 228.987L925.938 369.845L796.803 451.328L848.719 565.13L962.533 493.314ZM633.742 554.217L527.589 621.199L579.505 735L685.659 668.019L633.742 554.217Z" fill="white"/>
<path d="M993.176 473.982L1082.74 615.933L951.421 698.796L1064.49 943.469L901.434 1046.36L788.36 801.686L682.207 868.667L795.28 1113.34L633.314 1215.54L521.335 970.175L407.521 1041.99L317.952 900.04L449.276 817.176L396.265 704.065L284.64 774.499L195.76 633.641L325.99 551.468L221.062 324.555L381.934 223.046L486.861 449.96L593.015 382.978L489.182 155.374L651.148 53.1757L756.075 280.089L867.701 209.655L956.581 350.513L827.446 431.996L879.362 545.798L993.176 473.982ZM664.385 534.885L558.231 601.866L610.148 715.668L716.301 648.687L664.385 534.885Z" fill="#ECB942"/>
</svg>
