<svg width="162" height="162" viewBox="0 0 162 162" fill="none" xmlns="http://www.w3.org/2000/svg">
<path d="M126.414 25.0806C126.451 1.21627 95.4487 -9.25267 81.2689 10.0323C81.1772 10.1544 81.0873 10.2762 80.9987 10.3984C80.9101 10.2762 80.8203 10.1544 80.7285 10.0323C75.8065 3.46908 68.8687 0 60.6646 0C46.8351 0 35.584 11.2511 35.584 25.0806C35.584 53.5201 72.8737 80.6627 80.9987 80.6627C89.1364 80.6624 126.414 53.5056 126.414 25.0806ZM80.999 71.0807C74.0432 68.5488 45.0765 46.5475 45.0765 25.0803C45.0765 16.4848 52.0694 9.49187 60.6649 9.49187C72.9319 9.49187 76.2653 21.6713 76.3947 22.1643C77.6293 26.9312 84.352 26.9546 85.5967 22.1896C85.7328 21.6716 89.0661 9.49219 101.334 9.49219C109.929 9.49219 116.922 16.4851 116.922 25.0806C116.922 46.5867 87.9337 68.5573 80.999 71.0807Z" fill="white"/>
<path d="M45.7928 79.899C41.4837 75.5899 35.1724 74.4739 29.8267 76.552V50.4988C28.9964 30.6703 0.762539 30.7681 0 50.4988V90.4458C0 99.8614 3.66651 108.713 10.3237 115.369L30.5012 135.546V157.254C30.5012 159.875 32.6262 162 35.2473 162H63.2072C65.8283 162 67.9533 159.875 67.9533 157.254V134.633C76.3172 124.788 75.8537 109.96 66.5633 100.671L45.7928 79.899ZM59.8511 129.429C58.9614 130.319 58.4614 131.526 58.4614 132.784V152.508H39.9938V133.58C39.9938 132.322 39.4935 131.114 38.6035 130.224L17.0353 108.657C12.1712 103.793 9.49219 97.3257 9.49219 90.4458V50.4988C9.77695 43.3063 20.0443 43.312 20.3345 50.4988V90.4458C20.3345 90.4964 20.3348 90.5467 20.3351 90.5973C20.374 94.5239 21.9216 98.2094 24.7025 100.99L38.5702 114.858C40.4237 116.711 43.4287 116.711 45.2822 114.858C47.1357 113.004 47.1357 109.999 45.2822 108.146L31.4144 94.2774C29.254 92.1173 29.3429 88.6821 31.4144 86.6109C33.5283 84.4973 36.9673 84.4973 39.0809 86.6109L59.8514 107.383C65.9289 113.46 65.9286 123.349 59.8511 129.429Z" fill="white"/>
<path d="M147.087 35.5859C138.864 35.5859 132.174 42.276 132.174 50.4991V76.552C126.828 74.4742 120.517 75.5898 116.208 79.899L95.4371 100.671C86.1468 109.96 85.6832 124.788 94.0471 134.633V157.255C94.0471 159.876 96.1721 162.001 98.7932 162.001H126.753C129.374 162.001 131.499 159.876 131.499 157.255V135.546L151.676 115.369C158.334 108.713 162 99.8617 162 90.446V50.4991C162 42.3532 155.421 35.5859 147.087 35.5859V35.5859ZM152.508 90.446C152.508 97.326 149.829 103.793 144.965 108.657L123.397 130.224C122.507 131.114 122.006 132.321 122.006 133.58V152.509H103.539V132.785C103.539 131.526 103.039 130.319 102.149 129.429C96.0715 123.35 96.0711 113.46 102.149 107.383L122.919 86.6112C125.033 84.4976 128.472 84.4979 130.586 86.6112C132.657 88.6827 132.746 92.1176 130.586 94.2777L116.718 108.146C114.865 110 114.865 113.005 116.718 114.858C118.571 116.711 121.576 116.711 123.43 114.858L137.298 100.99C140.079 98.2097 141.626 94.5239 141.665 90.5976C141.665 90.547 141.666 90.4967 141.666 90.446V50.4991C141.958 43.3069 152.226 43.3119 152.508 50.4991V90.446H152.508Z" fill="white"/>
</svg>
