<svg width="148" height="168" viewBox="0 0 148 168" fill="none" xmlns="http://www.w3.org/2000/svg">
<path d="M136.665 66.2522L80.9948 10.5822C75.2398 4.82692 65.8745 4.82659 60.1188 10.5822C54.945 15.7558 54.4994 23.6462 58.3201 29.2804L58.2426 29.6679C54.229 49.7376 44.4578 67.9958 29.9845 82.4687L4.45023 108.003C-1.31886 113.772 -1.31984 123.11 4.45023 128.879L18.3673 142.796C24.1361 148.565 33.4738 148.565 39.2432 142.796L42.7227 139.317L67.078 163.672C72.8471 169.441 82.1842 169.442 87.9536 163.672C93.7093 157.917 93.7093 148.552 87.9536 142.796L77.5157 132.358L80.9951 128.879C86.7642 123.11 86.7648 113.773 80.9951 108.003L78.6306 105.639C90.2623 97.4949 103.472 91.8252 117.579 89.0036L117.972 88.9252C123.731 92.8138 131.603 92.1887 136.665 87.1274H136.665C142.42 81.3725 142.42 72.0078 136.665 66.2522ZM32.2847 135.838C30.3619 137.76 27.2486 137.76 25.3258 135.837L11.4088 121.92C9.48563 119.997 9.48563 116.885 11.4088 114.962L35.7638 90.6062L56.6397 111.482C54.2569 113.865 34.7263 133.396 32.2847 135.838ZM80.9948 149.755C82.913 151.673 82.913 154.795 80.9948 156.713C79.0765 158.631 75.9544 158.631 74.0362 156.713L49.6809 132.358L56.6397 125.399L80.9948 149.755ZM63.5983 118.441C65.0774 116.961 67.2916 114.696 70.7861 111.711L74.0362 114.962C75.9594 116.885 75.9594 119.997 74.0362 121.92L70.5568 125.4L63.5983 118.441ZM63.8073 104.733L42.5127 83.4383C53.9245 70.2612 62.0968 54.7064 66.469 37.808L109.438 80.7766C92.5392 85.1485 76.9847 93.3208 63.8073 104.733ZM129.705 80.1686C127.782 82.0914 124.67 82.0914 122.747 80.1686L67.0774 24.4993C65.1542 22.5758 65.1542 19.4639 67.0774 17.5408C69.0005 15.6176 72.1131 15.6176 74.0362 17.5408L129.705 73.2097C131.623 75.1282 131.623 78.2497 129.705 80.1686Z" fill="white"/>
<path d="M39.243 108.004C37.3218 106.082 34.2059 106.082 32.2844 108.004L25.3259 114.962C23.4044 116.884 23.4044 119.999 25.3259 121.921C27.2471 123.842 30.3633 123.842 32.2844 121.921L39.243 114.962C41.1645 113.041 41.1645 109.925 39.243 108.004Z" fill="white"/>
<path d="M103.594 0C100.877 0 98.6738 2.20303 98.6738 4.92055V14.7617C98.6738 17.4792 100.877 19.6822 103.594 19.6822C106.312 19.6822 108.515 17.4792 108.515 14.7617V4.92055C108.515 2.20303 106.312 0 103.594 0Z" fill="white"/>
<path d="M142.957 39.3633H133.116C130.398 39.3633 128.195 41.5663 128.195 44.2838C128.195 47.0014 130.398 49.2044 133.116 49.2044H142.957C145.674 49.2044 147.878 47.0014 147.878 44.2838C147.878 41.5663 145.674 39.3633 142.957 39.3633Z" fill="white"/>
<path d="M136.596 11.281C134.675 9.35947 131.559 9.35947 129.638 11.281L119.797 21.1221C117.875 23.0436 117.875 26.1591 119.797 28.0806C121.718 30.0021 124.834 30.0024 126.755 28.0806L136.596 18.2395C138.518 16.318 138.518 13.2028 136.596 11.281Z" fill="white"/>
</svg>
