<svg width="633" height="825" viewBox="0 0 633 825" fill="none" xmlns="http://www.w3.org/2000/svg">
<rect x="-7" width="640" height="825" fill="#D4FDFD"/>
<path fill-rule="evenodd" clip-rule="evenodd" d="M345.125 515.742H383.503C389.872 515.742 392.181 516.405 394.51 517.651C396.838 518.896 398.665 520.723 399.91 523.051C401.156 525.38 401.819 527.689 401.819 534.058V632.445C401.819 638.813 401.156 641.123 399.91 643.451C398.665 645.78 396.838 647.607 394.51 648.852C392.181 650.097 389.872 650.76 383.503 650.76H345.125C338.756 650.76 336.446 650.097 334.118 648.852C331.789 647.607 329.962 645.78 328.717 643.451C327.472 641.123 326.809 638.813 326.809 632.445V534.058C326.809 527.689 327.472 525.38 328.717 523.051C329.962 520.723 331.789 518.896 334.118 517.651C336.446 516.405 338.756 515.742 345.125 515.742Z" fill="#4AA1EB"/>
<path fill-rule="evenodd" clip-rule="evenodd" d="M519.433 389.301H557.811C564.18 389.301 566.49 389.964 568.818 391.209C571.146 392.454 572.974 394.282 574.219 396.61C575.464 398.938 576.127 401.248 576.127 407.617V473.856C576.127 480.225 575.464 482.534 574.219 484.863C572.974 487.191 571.146 489.018 568.818 490.264C566.49 491.509 564.18 492.172 557.811 492.172H519.433C513.064 492.172 510.755 491.509 508.426 490.264C506.098 489.018 504.271 487.191 503.026 484.863C501.78 482.534 501.117 480.225 501.117 473.856V407.617C501.117 401.248 501.78 398.938 503.026 396.61C504.271 394.282 506.098 392.454 508.426 391.209C510.755 389.964 513.064 389.301 519.433 389.301Z" fill="#4AA1EB"/>
<path fill-rule="evenodd" clip-rule="evenodd" d="M432.281 159.266H470.659C477.028 159.266 479.337 159.929 481.666 161.174C483.994 162.419 485.821 164.247 487.067 166.575C488.312 168.903 488.975 171.213 488.975 177.582V291.684C488.975 298.053 488.312 300.363 487.067 302.691C485.821 305.019 483.994 306.847 481.666 308.092C479.337 309.337 477.028 310 470.659 310H432.281C425.912 310 423.602 309.337 421.274 308.092C418.946 306.847 417.118 305.019 415.873 302.691C414.628 300.363 413.965 298.053 413.965 291.684V177.582C413.965 171.213 414.628 168.903 415.873 166.575C417.118 164.247 418.946 162.419 421.274 161.174C423.602 159.929 425.912 159.266 432.281 159.266Z" fill="#4AA1EB"/>
<path fill-rule="evenodd" clip-rule="evenodd" d="M519.433 254.277H557.811C564.18 254.277 566.49 254.94 568.818 256.186C571.146 257.431 572.974 259.258 574.219 261.587C575.464 263.915 576.127 266.224 576.127 272.593V354.549C576.127 360.918 575.464 363.227 574.219 365.556C572.974 367.884 571.146 369.711 568.818 370.957C566.49 372.202 564.18 372.865 557.811 372.865H519.433C513.064 372.865 510.755 372.202 508.426 370.957C506.098 369.711 504.271 367.884 503.026 365.556C501.78 363.227 501.117 360.918 501.117 354.549V272.593C501.117 266.224 501.78 263.915 503.026 261.587C504.271 259.258 506.098 257.431 508.426 256.186C510.755 254.94 513.064 254.277 519.433 254.277Z" fill="#4AA1EB"/>
<path fill-rule="evenodd" clip-rule="evenodd" d="M432.281 325.715H470.659C477.028 325.715 479.337 326.378 481.666 327.623C483.994 328.868 485.821 330.696 487.067 333.024C488.312 335.352 488.975 337.662 488.975 344.031V386.695C488.975 393.064 488.312 395.374 487.067 397.702C485.821 400.03 483.994 401.858 481.666 403.103C479.337 404.348 477.028 405.011 470.659 405.011H432.281C425.912 405.011 423.602 404.348 421.274 403.103C418.946 401.858 417.118 400.03 415.873 397.702C414.628 395.374 413.965 393.064 413.965 386.695V344.031C413.965 337.662 414.628 335.352 415.873 333.024C417.118 330.696 418.946 328.868 421.274 327.623C423.602 326.378 425.912 325.715 432.281 325.715Z" fill="#4AA1EB"/>
<path fill-rule="evenodd" clip-rule="evenodd" d="M519.433 159.266H557.811C564.18 159.266 566.49 159.929 568.818 161.174C571.146 162.419 572.974 164.247 574.219 166.575C575.464 168.903 576.127 171.213 576.127 177.582V220.246C576.127 226.615 575.464 228.925 574.219 231.253C572.974 233.581 571.146 235.409 568.818 236.654C566.49 237.899 564.18 238.562 557.811 238.562H519.433C513.064 238.562 510.755 237.899 508.426 236.654C506.098 235.409 504.271 233.581 503.026 231.253C501.78 228.925 501.117 226.615 501.117 220.246V177.582C501.117 171.213 501.78 168.903 503.026 166.575C504.271 164.247 506.098 162.419 508.426 161.174C510.755 159.929 513.064 159.266 519.433 159.266Z" fill="#4AA1EB"/>
<path fill-rule="evenodd" clip-rule="evenodd" d="M345.125 373.578H383.503C389.872 373.578 392.181 374.241 394.51 375.486C396.838 376.732 398.665 378.559 399.91 380.887C401.156 383.216 401.819 385.525 401.819 391.894V481.708C401.819 488.077 401.156 490.386 399.91 492.715C398.665 495.043 396.838 496.87 394.51 498.116C392.181 499.361 389.872 500.024 383.503 500.024H345.125C338.756 500.024 336.446 499.361 334.118 498.116C331.789 496.87 329.962 495.043 328.717 492.715C327.472 490.386 326.809 488.077 326.809 481.708V391.894C326.809 385.525 327.472 383.216 328.717 380.887C329.962 378.559 331.789 376.732 334.118 375.486C336.446 374.241 338.756 373.578 345.125 373.578Z" fill="#4AA1EB"/>
<path fill-rule="evenodd" clip-rule="evenodd" d="M345.125 277.852H383.503C389.872 277.852 392.181 278.515 394.51 279.76C396.838 281.005 398.665 282.832 399.91 285.161C401.156 287.489 401.819 289.799 401.819 296.168V338.832C401.819 345.201 401.156 347.51 399.91 349.839C398.665 352.167 396.838 353.994 394.51 355.24C392.181 356.485 389.872 357.148 383.503 357.148H345.125C338.756 357.148 336.446 356.485 334.118 355.24C331.789 353.994 329.962 352.167 328.717 349.839C327.472 347.51 326.809 345.201 326.809 338.832V296.168C326.809 289.799 327.472 287.489 328.717 285.161C329.962 282.832 331.789 281.005 334.118 279.76C336.446 278.515 338.756 277.852 345.125 277.852Z" fill="#4AA1EB"/>
<path fill-rule="evenodd" clip-rule="evenodd" d="M519.433 602.898H557.811C564.18 602.898 566.49 603.562 568.818 604.807C571.146 606.052 572.974 607.879 574.219 610.208C575.464 612.536 576.127 614.846 576.127 621.214V663.879C576.127 670.248 575.464 672.557 574.219 674.886C572.974 677.214 571.146 679.041 568.818 680.287C566.49 681.532 564.18 682.195 557.811 682.195H519.433C513.064 682.195 510.755 681.532 508.426 680.287C506.098 679.041 504.271 677.214 503.026 674.886C501.78 672.557 501.117 670.248 501.117 663.879V621.214C501.117 614.846 501.78 612.536 503.026 610.208C504.271 607.879 506.098 606.052 508.426 604.807C510.755 603.562 513.064 602.898 519.433 602.898Z" fill="#4AA1EB"/>
<path opacity="0.3" fill-rule="evenodd" clip-rule="evenodd" d="M473.255 127.121H496.83C499.197 127.121 501.116 129.04 501.116 131.407C501.116 133.775 499.197 135.694 496.83 135.694H473.255C470.888 135.694 468.969 133.775 468.969 131.407C468.969 129.04 470.888 127.121 473.255 127.121Z" fill="#B8DBE9"/>
<path fill-rule="evenodd" clip-rule="evenodd" d="M167.716 463.627C167.752 460.187 167.15 455.115 165.91 448.411C165.94 445.856 168.072 443.808 170.604 443.837C191.581 444.082 212.416 444.023 233.303 443.443C265.586 442.39 297.381 440.884 328.619 435.038C332.16 434.312 335.831 433.525 338.978 431.678C350.308 427.808 323.291 380.389 319.357 371.733L369.221 345.301C385.141 377.086 425.312 450.734 382.818 475.107C344.975 497.45 278.633 497.64 234.869 499.859C213.184 500.46 191.514 500.523 169.979 500.27C167.411 500.241 165.383 498.146 165.41 495.592C166.873 481.326 167.641 470.671 167.716 463.627Z" fill="#543629"/>
<path fill-rule="evenodd" clip-rule="evenodd" d="M291.185 339.903C289.098 341.083 287.725 342.542 288.09 343.125C288.091 343.125 291.115 348.183 291.115 348.183C304.669 371.515 317.685 395.841 326.606 421.114C326.588 421.084 326.555 421.123 326.52 421.123L361.101 414.437C362.881 411.385 364.499 408.043 365.538 403.37C369.127 406.058 372.692 408.473 376.091 411.538L411.081 404.773C406.238 389.066 399.804 373.92 392.55 359.185C386.465 346.825 362.098 311.536 358.505 305.75" fill="#C53B26"/>
<path fill-rule="evenodd" clip-rule="evenodd" d="M184.524 505.536C212.85 505.656 241.246 505.194 269.89 503.515L265.992 437.762C231.778 439.806 196.445 439.901 162.004 439.471V461.737C163.892 462.069 165.516 462.417 167.201 462.762L162.004 474.985C162.004 488.86 162.004 517.137 162.004 530.911L169.741 530.988C175.64 531.051 177.882 512.408 184.524 505.536Z" fill="#0A1B45"/>
<path fill-rule="evenodd" clip-rule="evenodd" d="M226.043 680.237C223.434 677.963 219.122 675.128 213.108 671.733C211.148 670.021 210.705 667.191 212.143 665.321C224.303 649.444 235.782 632.122 245.819 614.609C267.748 574.842 289.642 527.776 280.762 481.302C273.308 440.351 250.15 405.433 231.868 368.561L282.282 342.18C292.675 363.541 305.468 384.295 315.306 406.35C327.357 433.184 336.984 462.662 339.003 492.567C341.737 559.407 310.673 620.772 275.997 674.366C269.639 683.923 263.04 693.244 255.995 702.42C254.303 704.621 251.293 705.022 249.333 703.308C239.248 692.67 231.484 684.98 226.043 680.237Z" fill="#694D3D"/>
<path fill-rule="evenodd" clip-rule="evenodd" d="M282.05 307.144L207.749 305.752C205.358 305.696 203.42 306.91 203.438 308.464C203.423 314.566 203.894 320.655 204.788 326.664C210.258 365.148 233.742 398.437 249.308 432.196L280.453 415.824C281.164 411.148 281.755 406.437 282.27 401.716C286.203 403.986 290.101 406.308 293.954 408.728L325.597 392.095C315.58 371.394 303.54 352.57 293.819 332.467C290.994 326.473 288.413 320.162 287.073 313.716C286.731 311.792 286.442 309.862 286.408 307.918C286.397 307.546 284.44 307.199 282.05 307.144Z" fill="#E0492C"/>
<path fill-rule="evenodd" clip-rule="evenodd" d="M269.738 693.232C287.468 668.487 303.185 642.526 316.311 614.671L257.169 584.359C243.22 613.828 225.133 642.495 204.867 667.944C205.396 668.426 220.666 682.359 221.643 683.252C222.647 682.557 224.282 681.132 225.266 680.332C227.431 684.309 229.532 688.349 231.623 692.359C242.076 701.898 263.379 721.339 273.756 730.808C274.643 729.723 276.43 727.528 277.289 726.434C287.811 717.331 272.068 707.196 269.738 693.232Z" fill="#0A1B45"/>
<path fill-rule="evenodd" clip-rule="evenodd" d="M209.871 305.75C209.871 345.204 243.134 377.188 284.167 377.188C325.199 377.188 358.463 345.204 358.463 305.75" fill="#E0492C"/>
<path fill-rule="evenodd" clip-rule="evenodd" d="M476.759 102.639C479.95 101.996 483.117 102.035 486.123 102.712C487.626 103.049 489.088 103.546 490.492 104.192C491.884 104.841 493.205 105.642 494.451 106.58C499.447 110.313 503.036 116.359 503.77 123.496C505.385 139.122 505.673 155.053 503.95 171.209C503.039 179.599 501.656 188.042 499.448 196.497C497.262 204.945 494.375 213.411 490.391 221.708C489.443 223.787 488.309 225.837 487.234 227.89L485.47 230.938L484.573 232.456L483.611 233.957C481.096 237.97 478.179 241.856 475.001 245.582C468.628 253.025 460.817 259.727 451.978 264.835C447.589 267.444 442.908 269.525 438.172 271.299L434.592 272.538C433.392 272.909 432.185 273.241 430.979 273.583C430.375 273.75 429.772 273.927 429.167 274.08L427.351 274.492C426.14 274.755 424.925 275.045 423.714 275.27C414.02 277.026 404.367 277.382 395.233 276.564C386.072 275.784 377.327 274.042 368.995 271.72C360.659 269.392 352.723 266.481 345.093 263.215C341.543 261.739 338.573 259.561 336.13 257.114C333.753 254.589 331.925 251.771 330.805 248.763C329.692 245.745 329.222 242.609 329.438 239.523C329.652 236.442 330.578 233.368 332.163 230.534C333.757 227.688 335.863 225.349 338.291 223.447C340.719 221.55 343.449 220.132 346.288 219.237C349.134 218.332 352.109 217.858 355.034 217.998C357.978 218.038 360.873 218.726 363.651 219.872C375.652 225.03 387.848 228.624 399.13 229.576C399.842 229.666 400.531 229.681 401.224 229.714L403.302 229.821L405.331 229.812C406.009 229.816 406.687 229.826 407.339 229.769L409.315 229.668C409.97 229.631 410.597 229.529 411.24 229.471C412.539 229.381 413.749 229.106 414.997 228.934C419.871 227.978 424.307 226.398 428.311 224.055C432.324 221.731 435.967 218.668 439.247 214.846C440.874 212.923 442.453 210.877 443.866 208.592L444.413 207.755L444.924 206.873L445.954 205.107C446.582 203.864 447.274 202.679 447.851 201.374C449.097 198.851 450.155 196.129 451.17 193.369C451.638 191.957 452.15 190.575 452.559 189.116C452.771 188.392 453.005 187.681 453.205 186.948L453.789 184.736C455.344 178.829 456.372 172.584 457.065 166.224C458.385 153.955 458.203 141.154 456.873 128.371C456.276 122.555 458.098 116.94 461.601 112.273C462.48 111.109 463.48 110.007 464.57 108.989C465.649 107.972 466.832 107.036 468.105 106.203C470.654 104.538 473.568 103.281 476.759 102.639Z" fill="#543629"/>
<path fill-rule="evenodd" clip-rule="evenodd" d="M490.347 85.1581C492.065 84.7181 493.823 85.0631 495.258 86.0047C496.679 86.9484 497.787 88.4857 498.235 90.3681C502.018 106.803 504.363 123.645 504.976 140.801C505.064 142.767 504.34 144.58 503.209 145.874C502.071 147.173 500.468 147.963 498.688 147.97C495.143 147.962 492.239 144.946 492.125 141.239C491.545 125.003 489.318 108.946 485.703 93.2499C485.274 91.454 485.587 89.6616 486.433 88.1942C487.267 86.7326 488.625 85.5989 490.347 85.1581Z" fill="#543629"/>
<path fill-rule="evenodd" clip-rule="evenodd" d="M477.17 80.2446C478.876 79.7539 480.621 80.021 482.07 80.8711C483.526 81.7177 484.668 83.1507 485.125 84.9517C486.951 91.9369 488.508 98.9972 489.778 106.121C490.443 109.798 488.03 113.22 484.517 113.736C481.004 114.253 477.747 111.844 477.119 108.376C475.91 101.597 474.425 94.8666 472.684 88.2036C472.249 86.4876 472.518 84.7567 473.314 83.3201C474.117 81.8827 475.463 80.7354 477.17 80.2446Z" fill="#543629"/>
<path fill-rule="evenodd" clip-rule="evenodd" d="M465.804 82.0508C469.2 81.04 472.773 83.001 473.705 86.4529C475.494 93.1416 477.026 99.9004 478.281 106.711C478.902 110.234 476.535 113.529 473.007 114.069C469.515 114.604 466.217 112.351 465.634 109.037C464.442 102.569 462.986 96.1399 461.282 89.7719C460.402 86.5143 462.393 83.0667 465.804 82.0508Z" fill="#543629"/>
<path fill-rule="evenodd" clip-rule="evenodd" d="M454.026 109.199C455.769 108.861 457.473 109.204 458.826 110.049C460.158 110.897 461.119 112.251 461.405 113.884C462.461 120.231 463.254 126.606 463.76 132.975C463.906 134.616 462.396 136.703 460.9 138.328C459.376 139.958 457.805 141.137 457.805 141.137C457.733 139.225 456.097 138.668 454.419 137.742C452.736 136.811 451.096 135.534 450.78 132.132C450.302 126.762 449.61 121.375 448.72 115.995C448.449 114.454 448.922 112.936 449.885 111.705C450.828 110.477 452.283 109.535 454.026 109.199Z" fill="#543629"/>
<path fill-rule="evenodd" clip-rule="evenodd" d="M456.284 90.4178C459.697 89.4798 463.206 91.3951 464.021 94.7191C466.741 105.816 468.677 117.086 469.812 128.394C470.116 131.786 467.463 134.722 463.902 134.95C460.377 135.18 457.296 132.807 457.014 129.647C455.942 118.987 454.113 108.305 451.529 97.7702C450.763 94.6434 452.849 91.3601 456.284 90.4178Z" fill="#543629"/>
<path fill-rule="evenodd" clip-rule="evenodd" d="M361.979 308.696H208.758V232.212C208.758 215.447 222.349 201.855 239.115 201.855H331.622C348.388 201.855 361.979 215.447 361.979 232.212V308.696Z" fill="white"/>
<path fill-rule="evenodd" clip-rule="evenodd" d="M212.528 390.013H212.527C209.29 390.445 206.163 390.211 203.218 389.813C201.735 389.615 200.323 389.367 198.991 389.107C197.606 388.873 196.366 388.6 195.157 388.372C192.776 387.887 190.714 387.542 189.106 387.087C187.478 386.63 186.25 386.03 185.165 384.824C182.796 382.179 178.827 379.139 173.764 376.164C168.719 373.161 162.743 370.185 156.278 366.937C148.927 363.218 140.874 359.191 132.451 353.558C128.253 350.747 123.943 347.428 119.769 343.449C115.597 339.489 111.581 334.664 108.246 329.182C104.912 323.686 102.409 317.481 100.915 311.275C99.3929 305.049 98.9414 298.899 99.0722 293.128L99.1543 290.978C99.18 290.266 99.2157 289.546 99.295 288.79C99.4493 287.294 99.5394 285.817 99.788 284.309C100.219 281.307 100.834 278.287 101.677 275.3C103.347 269.322 105.9 263.495 109.121 258.238C112.336 252.969 116.181 248.275 120.296 244.228C124.42 240.187 128.798 236.761 133.236 233.805C142.135 227.906 151.231 223.806 160.203 220.575C169.188 217.363 178.103 215.045 186.941 213.245C195.781 211.453 204.552 210.183 213.282 209.272C221.35 208.43 228.825 210.632 234.152 214.673C239.501 218.723 242.7 224.582 242.808 231.086C242.915 237.598 240.038 243.527 235.572 247.983C231.085 252.447 225.006 255.454 218.163 256.168C210.736 256.943 203.413 258.014 196.331 259.45C189.254 260.886 182.415 262.702 176.101 264.963C169.799 267.216 164.021 269.948 159.377 273.045C157.056 274.588 155.027 276.211 153.345 277.855C151.674 279.506 150.363 281.166 149.348 282.832C148.332 284.502 147.597 286.182 147.077 288.024C146.814 288.943 146.621 289.913 146.469 290.929C146.365 291.422 146.374 291.981 146.298 292.501C146.258 292.754 146.249 293.049 146.244 293.352L146.208 294.245C146.159 296.584 146.334 298.607 146.762 300.274C147.192 301.956 147.747 303.374 148.62 304.83C149.528 306.271 150.683 307.8 152.409 309.423C154.119 311.044 156.23 312.749 158.785 314.449C163.863 317.873 170.326 321.237 177.474 324.82C183.767 327.998 190.617 331.347 197.865 335.639C201.485 337.793 205.212 340.194 208.98 343.058C212.74 345.918 216.549 349.239 220.151 353.217C223.437 356.835 225.837 361.312 226.963 365.774C228.099 370.246 228.015 374.608 226.905 378.195C226.375 379.988 225.551 381.605 224.635 382.998C223.659 384.395 222.522 385.581 221.279 386.551C218.767 388.498 215.74 389.583 212.528 390.013Z" fill="#694D3D"/>
<path fill-rule="evenodd" clip-rule="evenodd" d="M195.398 401.229C193.632 400.99 192.148 400.244 191.037 399.407C190.492 398.981 190.066 398.518 189.794 398.032C189.479 397.575 189.315 397.102 189.344 396.61C189.391 394.517 189.21 392.776 188.832 391.356C188.45 389.922 187.966 388.726 187.177 387.441C186.357 386.168 185.245 384.773 183.641 383.261C182.021 381.755 179.971 380.157 177.567 378.547C175.383 377.089 174.73 373.394 176.512 370.319C177.401 368.791 178.792 367.717 180.274 367.271C181.772 366.814 183.388 366.981 184.705 367.852C187.551 369.757 190.168 371.766 192.447 373.891C194.714 376.024 196.596 378.28 198.093 380.645C199.568 383.021 200.614 385.534 201.305 388.231C202.002 390.922 202.269 393.836 202.2 396.897C202.167 397.604 201.959 398.272 201.613 398.856C201.225 399.452 200.702 399.962 200.081 400.355C198.856 401.141 197.15 401.473 195.398 401.229Z" fill="#694D3D"/>
<path fill-rule="evenodd" clip-rule="evenodd" d="M205.333 409.867C203.61 409.436 202.205 408.411 201.313 407.171C200.863 406.549 200.497 405.878 200.309 405.18C200.113 404.484 200.092 403.759 200.178 403.049C201.105 397.446 200.965 392.236 199.693 387.755C199.364 386.604 199.678 385.37 200.408 384.142C201.185 382.909 202.33 381.705 203.936 380.919C205.518 380.143 207.294 379.99 208.779 380.591C210.3 381.161 211.559 382.474 212.056 384.22C213.984 391.006 214.007 398.191 212.879 405.06C212.764 405.952 212.404 406.756 211.937 407.451C211.464 408.146 210.884 408.728 210.185 409.159C208.777 410.021 207.055 410.297 205.333 409.867Z" fill="#694D3D"/>
<path fill-rule="evenodd" clip-rule="evenodd" d="M216.062 414.102C214.348 413.642 212.975 412.493 212.122 411.076C211.69 410.364 211.42 409.588 211.251 408.767C211.081 407.946 211.066 407.092 211.237 406.229C212.424 399.52 212.687 392.564 211.048 385.964C210.81 385.127 210.802 384.271 210.866 383.448C210.929 382.627 211.148 381.812 211.497 381.037C212.127 379.523 213.29 378.135 214.913 377.416C216.535 376.697 218.345 376.842 219.999 377.815C220.788 378.309 221.528 379.006 222.16 379.867C222.791 380.726 223.226 381.766 223.537 382.897C224.626 387.317 225.075 391.777 225.063 396.069C225.051 400.369 224.595 404.515 223.892 408.508C223.695 409.525 223.326 410.458 222.834 411.264C222.339 412.07 221.673 412.714 220.959 413.217C219.518 414.217 217.777 414.562 216.062 414.102Z" fill="#694D3D"/>
<path fill-rule="evenodd" clip-rule="evenodd" d="M235.355 383.532C233.606 383.855 231.821 383.049 230.319 381.638C229.534 380.926 228.814 380.057 228.199 379.064C227.58 378.07 226.982 376.962 226.561 375.736C224.822 370.977 222.33 366.486 219.451 362.536C216.568 358.575 213.312 355.148 209.976 352.182C209.119 351.395 208.426 350.332 207.844 349.052C207.264 347.823 206.79 346.433 206.404 345.138C206.021 343.864 205.726 342.658 205.524 341.77C205.327 340.895 205.227 340.344 205.227 340.344C206.339 341.09 207.334 341.353 208.314 341.31C209.296 341.272 210.282 341.008 211.407 340.87C212.535 340.742 213.781 340.644 215.336 341.171C216.111 341.428 216.95 341.791 217.88 342.369C218.816 342.98 219.829 343.731 220.935 344.796C224.418 348.135 227.861 352.022 230.931 356.491C234.003 360.948 236.667 365.989 238.617 371.262C239.145 372.778 239.497 374.292 239.561 375.701C239.62 377.11 239.478 378.415 239.165 379.53C238.465 381.757 237.097 383.21 235.355 383.532Z" fill="#694D3D"/>
<path fill-rule="evenodd" clip-rule="evenodd" d="M228.648 410.263H228.647C226.89 409.919 225.523 408.79 224.573 407.227C223.633 405.666 223.21 403.741 223.377 401.638C223.672 398.12 223.772 394.504 223.403 390.802C223.057 387.111 222.328 383.363 221.135 379.715C219.949 376.07 218.296 372.543 216.286 369.317C214.279 366.085 211.932 363.152 209.422 360.545C208.67 359.775 208.068 358.942 207.625 358.047C207.17 357.19 206.868 356.282 206.725 355.368C206.435 353.569 206.764 351.776 207.894 350.399C209.023 349.037 210.765 348.368 212.731 348.543C213.713 348.642 214.747 348.945 215.767 349.439C216.786 349.982 217.792 350.709 218.701 351.643C221.745 354.805 224.672 358.446 227.203 362.521C229.737 366.588 231.85 371.085 233.355 375.712C234.871 380.339 235.782 385.061 236.208 389.626C236.657 394.215 236.539 398.582 236.187 402.765C236.059 403.996 235.794 405.192 235.312 406.17C234.841 407.158 234.238 408.013 233.548 408.685C232.173 410.041 230.378 410.584 228.648 410.263Z" fill="#694D3D"/>
<path d="M189.277 207.797L230.123 201.754L253.879 249.059L203.031 265.314L189.277 207.797Z" fill="white"/>
<path d="M384.54 215.924L342.653 204.254L319.312 261.979L371.411 279.484L384.54 215.924Z" fill="white"/>
<path fill-rule="evenodd" clip-rule="evenodd" d="M280.921 193.28L294.502 191.371L284.063 117.091L270.481 119C250.633 121.79 236.804 140.141 239.594 159.989L239.932 162.393C242.721 182.241 261.072 196.07 280.921 193.28Z" fill="black"/>
<path fill-rule="evenodd" clip-rule="evenodd" d="M281.757 171.525L275.25 172.44L267.793 119.383L274.301 118.468C294.149 115.679 311.506 122.433 314.295 142.281L315.627 151.759C317.695 166.475 301.606 168.736 281.757 171.525Z" fill="black"/>
<path fill-rule="evenodd" clip-rule="evenodd" d="M261.609 172.91L293.444 168.436L298.577 204.963C299.96 214.8 293.954 223.775 285.163 225.011C276.373 226.246 268.125 219.274 266.743 209.437L261.609 172.91Z" fill="#694D3D"/>
<path fill-rule="evenodd" clip-rule="evenodd" d="M298.077 190.871L294.549 191.367C278.114 193.677 262.919 182.226 260.609 165.791L258.647 151.832C256.879 139.251 265.644 127.617 278.227 125.849L282.183 125.293C294.766 123.525 306.399 132.291 308.167 144.873L312.03 172.356C313.29 181.321 307.043 189.611 298.077 190.871Z" fill="#694D3D"/>
<path opacity="0.12" fill-rule="evenodd" clip-rule="evenodd" d="M280.454 195.36C273.551 193.958 269.445 188.544 267.035 180.824C273.382 188.663 283.521 193.112 294.224 191.74L294.593 191.691L296.669 191.399C291.475 195.18 286.07 196.501 280.454 195.36Z" fill="black"/>
<path fill-rule="evenodd" clip-rule="evenodd" d="M269.749 169.24C270.435 174.124 267.033 178.639 262.149 179.326C257.265 180.012 252.749 176.609 252.063 171.726C251.377 166.842 254.779 162.326 259.663 161.64C264.547 160.954 269.063 164.357 269.749 169.24Z" fill="#694D3D"/>
<path d="M258.652 166.949C259.292 166.859 260.199 166.882 261.172 167.209C262.797 167.755 263.953 169.008 264.3 171.013L264.334 171.231L262.212 171.529C262.029 170.231 261.429 169.556 260.489 169.241C260.141 169.124 259.766 169.066 259.395 169.057C259.213 169.052 259.073 169.059 258.992 169.067L258.951 169.072L258.652 166.949Z" fill="black"/>
<path fill-rule="evenodd" clip-rule="evenodd" d="M259.31 161.69L258.224 161.843C253.517 158.398 250.772 150.415 249.173 142.518C246.982 131.695 264.638 119.821 275.573 118.284L288.296 116.496L302.919 133.198L275.115 137.105C276.805 149.132 267.8 160.497 259.31 161.69Z" fill="black"/>
<path fill-rule="evenodd" clip-rule="evenodd" d="M277.638 136.751L302.614 133.241C309.815 132.229 314.832 125.57 313.82 118.37L313.031 112.755C312.637 109.953 310.047 108.001 307.244 108.395L284.922 111.532C275.438 112.865 268.831 121.634 270.163 131.118C270.672 134.738 274.019 137.259 277.638 136.751Z" fill="black"/>
<path d="M291.678 154.874L293.71 154.195L299.045 170.145L292.059 171.126L291.761 169.004L296.195 168.381L291.678 154.874Z" fill="black"/>
<path fill-rule="evenodd" clip-rule="evenodd" d="M301.835 181.651L291.894 183.048C288.399 183.539 285.166 181.104 284.675 177.607L284.57 176.863L300.841 174.577L301.835 181.651Z" fill="white"/>
<path d="M301.753 173.368L283.359 175.953L283.613 177.758C284.187 181.841 287.961 184.685 292.042 184.111L303.045 182.565L301.753 173.368ZM300.624 180.74L291.744 181.989L291.57 182.01C288.903 182.297 286.457 180.55 285.834 177.978L285.789 177.775L299.928 175.788L300.624 180.74Z" fill="black"/>
<path d="M295.125 147.493C296.417 149.437 301.111 150.798 303.199 149.526L303.316 149.449L304.536 151.212C301.5 153.313 295.477 151.652 293.437 148.819L293.34 148.679L295.125 147.493Z" fill="black"/>
<path fill-rule="evenodd" clip-rule="evenodd" d="M301.391 155.381C301.226 154.209 300.142 153.392 298.97 153.557C297.798 153.722 296.981 154.806 297.146 155.978C297.311 157.15 298.394 157.967 299.566 157.802C300.739 157.637 301.555 156.553 301.391 155.381Z" fill="black"/>
<path fill-rule="evenodd" clip-rule="evenodd" d="M285.117 157.666C284.952 156.494 283.869 155.678 282.697 155.842C281.524 156.007 280.708 157.091 280.872 158.263C281.037 159.435 282.121 160.252 283.293 160.087C284.465 159.922 285.282 158.839 285.117 157.666Z" fill="black"/>
<path d="M283.224 146.762L283.523 148.884C281.24 149.205 279.244 150.11 277.547 151.392C276.953 151.84 276.44 152.302 276.012 152.751L275.768 153.014C275.677 153.117 275.607 153.199 275.561 153.258L275.53 153.298L273.818 152.008C274.254 151.429 275.068 150.578 276.256 149.681C278.141 148.257 280.353 147.23 282.878 146.815L283.224 146.762Z" fill="black"/>
<path opacity="0.906" fill-rule="evenodd" clip-rule="evenodd" d="M432.281 420.727H470.659C477.028 420.727 479.337 421.39 481.666 422.635C483.994 423.88 485.821 425.707 487.067 428.036C488.312 430.364 488.975 432.674 488.975 439.043V505.282C488.975 511.651 488.312 513.96 487.067 516.288C485.821 518.617 483.994 520.444 481.666 521.689C479.337 522.935 477.028 523.598 470.659 523.598H432.281C425.912 523.598 423.602 522.935 421.274 521.689C418.946 520.444 417.118 518.617 415.873 516.288C414.628 513.96 413.965 511.651 413.965 505.282V439.043C413.965 432.674 414.628 430.364 415.873 428.036C417.118 425.707 418.946 423.88 421.274 422.635C423.602 421.39 425.912 420.727 432.281 420.727Z" fill="#4AA1EB"/>
<path opacity="0.866" fill-rule="evenodd" clip-rule="evenodd" d="M432.281 539.32H470.659C477.028 539.32 479.337 539.983 481.666 541.229C483.994 542.474 485.821 544.301 487.067 546.63C488.312 548.958 488.975 551.267 488.975 557.636V623.875C488.975 630.244 488.312 632.554 487.067 634.882C485.821 637.211 483.994 639.038 481.666 640.283C479.337 641.528 477.028 642.191 470.659 642.191H432.281C425.912 642.191 423.602 641.528 421.274 640.283C418.946 639.038 417.118 637.211 415.873 634.882C414.628 632.554 413.965 630.244 413.965 623.875V557.636C413.965 551.267 414.628 548.958 415.873 546.63C417.118 544.301 418.946 542.474 421.274 541.229C423.602 539.983 425.912 539.32 432.281 539.32Z" fill="#4AA1EB"/>
<path fill-rule="evenodd" clip-rule="evenodd" d="M519.437 507.887H557.815C564.184 507.887 566.494 508.55 568.822 509.795C571.15 511.04 572.978 512.868 574.223 515.196C575.468 517.524 576.131 519.834 576.131 526.203V568.867C576.131 575.236 575.468 577.546 574.223 579.874C572.978 582.202 571.15 584.03 568.822 585.275C566.494 586.52 564.184 587.183 557.815 587.183H519.437C513.068 587.183 510.759 586.52 508.43 585.275C506.102 584.03 504.275 582.202 503.029 579.874C501.784 577.546 501.121 575.236 501.121 568.867V526.203C501.121 519.834 501.784 517.524 503.029 515.196C504.275 512.868 506.102 511.04 508.43 509.795C510.759 508.55 513.068 507.887 519.437 507.887Z" fill="#4AA1EB"/>
</svg>
