<svg width="172" height="172" viewBox="0 0 172 172" fill="none" xmlns="http://www.w3.org/2000/svg">
<path d="M156.818 126.365V91.7358C156.818 74.8936 145.533 60.6394 130.127 56.1328C129.568 52.249 128.043 48.5554 125.692 45.4147C128.146 37.7406 126.161 29.3589 120.373 23.5717C119.388 22.5871 118.311 21.6992 117.159 20.9225C112.021 8.36115 99.6444 0 86 0C72.3552 0 59.979 8.36115 54.8405 20.9225C53.6885 21.6992 52.6112 22.5871 51.6269 23.5714C45.8393 29.3589 43.8543 37.7402 46.308 45.4144C43.9571 48.5551 42.4319 52.2487 41.8726 56.1325C26.4675 60.6391 15.182 74.8932 15.182 91.7355V110.848C15.182 116.174 17.281 121.016 20.6901 124.602C8.91041 126.933 0 137.341 0 149.794V168.641C0 170.496 1.50399 172 3.35938 172H104.612C106.468 172 107.972 170.496 107.972 168.641C107.972 166.785 106.468 165.281 104.612 165.281H74.1774V149.794C74.1774 139.337 82.685 130.83 93.142 130.83H107.455C108.726 136.436 113.745 140.635 119.729 140.635C125.714 140.635 130.733 136.436 132.004 130.83H146.317C156.774 130.83 165.282 139.337 165.282 149.794V165.281H134.845C132.99 165.281 131.486 166.785 131.486 168.641C131.486 170.496 132.99 172 134.845 172H168.641C170.496 172 172 170.496 172 168.641V149.794C172 139.373 165.757 130.388 156.818 126.365V126.365ZM52.6256 48.2971C53.4997 47.3242 53.7298 45.9327 53.2155 44.7307C50.8048 39.0947 52.0461 32.6541 56.3777 28.3226C57.2525 27.4478 58.2334 26.6835 59.293 26.0513C59.9527 25.6576 60.4577 25.0499 60.7234 24.3293C64.6102 13.7959 74.7679 6.71875 86 6.71875C97.2321 6.71875 107.39 13.7959 111.276 24.3293C111.542 25.0502 112.047 25.6579 112.707 26.0513C113.766 26.6828 114.747 27.4471 115.622 28.3222C119.954 32.6538 121.195 39.0944 118.784 44.7304C118.27 45.9327 118.5 47.3242 119.374 48.2967C121.057 50.1699 122.282 52.3968 122.979 54.7907C121.908 54.6973 120.824 54.6466 119.729 54.6466C114.304 54.6466 109.148 55.8177 104.499 57.9197C106.522 54.6238 107.691 50.7501 107.691 46.6073V36.3249C107.691 34.4695 106.187 32.9655 104.331 32.9655H93.1393C88.4016 32.9655 84.5474 29.1113 84.5474 24.3739C84.5474 22.5186 83.0434 21.0146 81.188 21.0146C79.3326 21.0146 77.8287 22.5186 77.8287 24.3739C77.8287 26.5831 78.3027 28.6823 79.1482 30.5807C77.7833 32.0787 75.8362 32.9655 73.7594 32.9655H67.6686C65.8132 32.9655 64.3092 34.4695 64.3092 36.3249V46.6073C64.3092 50.7497 65.4779 54.6238 67.5009 57.9197C62.8519 55.8177 57.6956 54.6466 52.2705 54.6466C51.1754 54.6466 50.092 54.6973 49.021 54.7907C49.7184 52.3972 50.9426 50.1699 52.6256 48.2971V48.2971ZM73.7594 39.6846C77.3103 39.6846 80.665 38.3372 83.2087 36.0135C85.8844 38.2996 89.352 39.6846 93.139 39.6846H100.972V46.6076C100.972 54.8633 94.2553 61.5797 85.9997 61.5797C77.744 61.5797 71.0276 54.8633 71.0276 46.6076V39.6846H73.7594ZM86 68.2988C87.9478 68.2988 89.8347 68.0364 91.632 67.5527C89.3668 70.1807 87.464 73.1292 86 76.3196C84.536 73.1292 82.6332 70.181 80.368 67.5527C82.1653 68.0364 84.0522 68.2988 86 68.2988ZM21.9008 91.7358C21.9008 74.9897 35.5247 61.3657 52.2709 61.3657C69.017 61.3657 82.6406 74.9897 82.6406 91.7358V110.848C82.6406 118.162 76.6908 124.111 69.3771 124.111H64.8584V119.281C70.4364 115.325 74.087 108.822 74.087 101.479V91.1261C74.087 89.2707 72.583 87.7667 70.7276 87.7667H59.4586C54.6758 87.7667 50.785 83.8755 50.785 79.0931C50.785 77.2377 49.281 75.7338 47.4256 75.7338C45.5703 75.7338 44.0663 77.2377 44.0663 79.0931C44.0663 81.3194 44.545 83.4344 45.3993 85.3469C44.0206 86.8667 42.0493 87.767 39.9463 87.767H33.8138C31.9584 87.767 30.4544 89.271 30.4544 91.1264V101.479C30.4544 108.823 34.105 115.325 39.683 119.281V124.112H35.1643C27.8509 124.112 21.9011 118.162 21.9011 110.849V91.7358H21.9008ZM37.1728 94.4851H39.946C43.5224 94.4851 46.9006 93.1249 49.4594 90.7807C52.1516 93.0873 55.6437 94.4851 59.4586 94.4851H67.3682V101.479C67.3682 109.804 60.5954 116.576 52.2705 116.576C43.9457 116.576 37.1728 109.804 37.1728 101.479V94.4851ZM46.4014 122.487C48.2702 123.009 50.2371 123.295 52.2705 123.295C54.304 123.295 56.2709 123.01 58.1397 122.487V128.047C58.1397 131.284 55.507 133.916 52.2705 133.916C49.0344 133.916 46.4014 131.284 46.4014 128.047V122.487ZM67.4586 149.794V165.281H6.71875V149.794C6.71875 139.337 15.2264 130.83 25.6834 130.83H39.9967C41.2672 136.436 46.2861 140.635 52.2709 140.635C58.2556 140.635 63.2745 136.436 64.545 130.83H75.8416C70.6937 135.53 67.4586 142.291 67.4586 149.794V149.794ZM104.631 94.4851H112.541C116.356 94.4851 119.848 93.0869 122.54 90.7807C125.099 93.1249 128.478 94.4851 132.054 94.4851H134.827V101.479C134.827 109.804 128.054 116.576 119.729 116.576C111.404 116.576 104.631 109.804 104.631 101.479V94.4851ZM119.729 133.916C116.493 133.916 113.86 131.284 113.86 128.047V122.487C115.729 123.009 117.696 123.295 119.729 123.295C121.763 123.295 123.73 123.01 125.599 122.487V128.047C125.599 131.284 122.966 133.916 119.729 133.916ZM132.317 124.111V119.28C137.895 115.325 141.546 108.822 141.546 101.478V91.1254C141.546 89.27 140.042 87.766 138.187 87.766H132.054C129.951 87.766 127.979 86.8657 126.601 85.3459C127.455 83.4334 127.934 81.3184 127.934 79.0921C127.934 77.2367 126.43 75.7327 124.574 75.7327C122.719 75.7327 121.215 77.2367 121.215 79.0921C121.215 83.8749 117.324 87.7657 112.541 87.7657H101.272C99.417 87.7657 97.913 89.2697 97.913 91.1251V101.478C97.913 108.821 101.564 115.324 107.142 119.28V124.11H89.3594V91.7348C89.3594 74.9886 102.983 61.3647 119.729 61.3647C136.476 61.3647 150.099 74.9886 150.099 91.7348V124.11H132.317V124.111Z" fill="white"/>
<path d="M119.729 165.281C118.845 165.281 117.978 165.641 117.353 166.266C116.729 166.89 116.369 167.757 116.369 168.641C116.369 169.524 116.729 170.391 117.353 171.016C117.978 171.641 118.845 172 119.729 172C120.615 172 121.479 171.641 122.104 171.016C122.732 170.391 123.088 169.524 123.088 168.641C123.088 167.757 122.732 166.89 122.104 166.266C121.479 165.641 120.615 165.281 119.729 165.281Z" fill="white"/>
</svg>
